M48
; DRILL file {KiCad 8.0.1} date 2024-04-03T13:35:54+0200
; FORMAT={-:-/ absolute / inch / decimal}
; #@! TF.CreationDate,2024-04-03T13:35:54+02:00
; #@! TF.GenerationSoftware,Kicad,Pcbnew,8.0.1
; #@! TF.FileFunction,Plated,1,4,PTH
FMAT,2
INCH
; #@! TA.AperFunction,Plated,PTH,ViaDrill
T1C0.0118
; #@! TA.AperFunction,Plated,PTH,ViaDrill
T2C0.0157
; #@! TA.AperFunction,Plated,PTH,ComponentDrill
T3C0.0236
; #@! TA.AperFunction,Plated,PTH,ComponentDrill
T4C0.0469
; #@! TA.AperFunction,Plated,PTH,ComponentDrill
T5C0.0472
; #@! TA.AperFunction,Plated,PTH,ComponentDrill
T6C0.1693
%
G90
G05
T1
X3.3465Y-3.5433
X3.7402Y-3.5433
X3.7943Y-4.1781
X3.815Y-3.2756
X3.8386Y-4.0157
X3.8789Y-4.2047
X3.8976Y-3.2717
X3.9459Y-3.5699
X3.9469Y-3.7598
X4.124Y-3.248
X4.3287Y-3.5059
T2
X3.4449Y-3.8829
X3.5434Y-3.7204
X3.6752Y-3.4754
X3.9469Y-3.4675
X4.0571Y-3.5965
X4.251Y-4.3602
X4.4301Y-4.4852
X4.4882Y-4.5472
X4.56Y-3.2874
X4.6654Y-3.248
X4.7638Y-4.1732
X5.0886Y-3.5807
X5.0886Y-3.7146
T3
X3.0226Y-3.1496
X3.0226Y-4.5669
X3.0598Y-3.0598
X3.0598Y-3.2394
X3.0598Y-4.4771
X3.0598Y-4.6567
X3.1496Y-3.0226
X3.1496Y-3.2766
X3.1496Y-4.44
X3.1496Y-4.6939
X3.2394Y-3.0598
X3.2394Y-3.2394
X3.2394Y-4.4771
X3.2394Y-4.6567
X3.2766Y-3.1496
X3.2766Y-4.5669
X5.188Y-3.1496
X5.188Y-4.5669
X5.2252Y-3.0598
X5.2252Y-3.2394
X5.2252Y-4.4771
X5.2252Y-4.6567
X5.315Y-3.0226
X5.315Y-3.2766
X5.315Y-4.44
X5.315Y-4.6939
X5.4047Y-3.0598
X5.4047Y-3.2394
X5.4047Y-4.4771
X5.4047Y-4.6567
X5.4419Y-3.1496
X5.4419Y-4.5669
T4
X3.6858Y-4.6299
X3.6886Y-3.0898
X3.7858Y-4.6299
X3.7886Y-3.0898
X3.8858Y-4.6299
X3.8886Y-3.0898
X3.9858Y-4.6299
X3.9886Y-3.0898
T5
X5.3041Y-4.0551
X5.3041Y-4.1929
T6
X3.1496Y-3.1496
X3.1496Y-4.5669
X5.315Y-3.1496
X5.315Y-4.5669
M30
