%TF.GenerationSoftware,KiCad,Pcbnew,8.0.1*%
%TF.CreationDate,2024-04-03T13:36:13+02:00*%
%TF.ProjectId,stm32f405_v8,73746d33-3266-4343-9035-5f76382e6b69,rev?*%
%TF.SameCoordinates,Original*%
%TF.FileFunction,Paste,Top*%
%TF.FilePolarity,Positive*%
%FSLAX46Y46*%
G04 Gerber Fmt 4.6, Leading zero omitted, Abs format (unit mm)*
G04 Created by KiCad (PCBNEW 8.0.1) date 2024-04-03 13:36:13*
%MOMM*%
%LPD*%
G01*
G04 APERTURE LIST*
G04 Aperture macros list*
%AMRoundRect*
0 Rectangle with rounded corners*
0 $1 Rounding radius*
0 $2 $3 $4 $5 $6 $7 $8 $9 X,Y pos of 4 corners*
0 Add a 4 corners polygon primitive as box body*
4,1,4,$2,$3,$4,$5,$6,$7,$8,$9,$2,$3,0*
0 Add four circle primitives for the rounded corners*
1,1,$1+$1,$2,$3*
1,1,$1+$1,$4,$5*
1,1,$1+$1,$6,$7*
1,1,$1+$1,$8,$9*
0 Add four rect primitives between the rounded corners*
20,1,$1+$1,$2,$3,$4,$5,0*
20,1,$1+$1,$4,$5,$6,$7,0*
20,1,$1+$1,$6,$7,$8,$9,0*
20,1,$1+$1,$8,$9,$2,$3,0*%
G04 Aperture macros list end*
%ADD10RoundRect,0.225000X0.225000X0.375000X-0.225000X0.375000X-0.225000X-0.375000X0.225000X-0.375000X0*%
%ADD11RoundRect,0.225000X0.375000X-0.225000X0.375000X0.225000X-0.375000X0.225000X-0.375000X-0.225000X0*%
%ADD12RoundRect,0.075000X-0.700000X-0.075000X0.700000X-0.075000X0.700000X0.075000X-0.700000X0.075000X0*%
%ADD13RoundRect,0.075000X-0.075000X-0.700000X0.075000X-0.700000X0.075000X0.700000X-0.075000X0.700000X0*%
%ADD14RoundRect,0.150000X-0.587500X-0.150000X0.587500X-0.150000X0.587500X0.150000X-0.587500X0.150000X0*%
%ADD15RoundRect,0.225000X-0.250000X0.225000X-0.250000X-0.225000X0.250000X-0.225000X0.250000X0.225000X0*%
%ADD16RoundRect,0.135000X0.135000X0.185000X-0.135000X0.185000X-0.135000X-0.185000X0.135000X-0.185000X0*%
%ADD17RoundRect,0.250000X-0.325000X-0.650000X0.325000X-0.650000X0.325000X0.650000X-0.325000X0.650000X0*%
%ADD18RoundRect,0.140000X-0.170000X0.140000X-0.170000X-0.140000X0.170000X-0.140000X0.170000X0.140000X0*%
%ADD19RoundRect,0.140000X0.170000X-0.140000X0.170000X0.140000X-0.170000X0.140000X-0.170000X-0.140000X0*%
%ADD20R,1.150000X0.600000*%
%ADD21RoundRect,0.140000X0.140000X0.170000X-0.140000X0.170000X-0.140000X-0.170000X0.140000X-0.170000X0*%
%ADD22RoundRect,0.200000X0.200000X0.275000X-0.200000X0.275000X-0.200000X-0.275000X0.200000X-0.275000X0*%
%ADD23RoundRect,0.200000X-0.200000X-0.275000X0.200000X-0.275000X0.200000X0.275000X-0.200000X0.275000X0*%
%ADD24RoundRect,0.218750X0.218750X0.256250X-0.218750X0.256250X-0.218750X-0.256250X0.218750X-0.256250X0*%
%ADD25RoundRect,0.140000X-0.140000X-0.170000X0.140000X-0.170000X0.140000X0.170000X-0.140000X0.170000X0*%
%ADD26RoundRect,0.135000X-0.135000X-0.185000X0.135000X-0.185000X0.135000X0.185000X-0.135000X0.185000X0*%
%ADD27RoundRect,0.218750X-0.218750X-0.256250X0.218750X-0.256250X0.218750X0.256250X-0.218750X0.256250X0*%
%ADD28RoundRect,0.150000X0.150000X-0.512500X0.150000X0.512500X-0.150000X0.512500X-0.150000X-0.512500X0*%
%ADD29RoundRect,0.200000X-0.275000X0.200000X-0.275000X-0.200000X0.275000X-0.200000X0.275000X0.200000X0*%
%ADD30RoundRect,0.225000X0.225000X0.250000X-0.225000X0.250000X-0.225000X-0.250000X0.225000X-0.250000X0*%
%ADD31RoundRect,0.135000X0.185000X-0.135000X0.185000X0.135000X-0.185000X0.135000X-0.185000X-0.135000X0*%
%ADD32R,2.500000X0.500000*%
%ADD33R,2.500000X2.000000*%
%ADD34RoundRect,0.147500X-0.147500X-0.172500X0.147500X-0.172500X0.147500X0.172500X-0.147500X0.172500X0*%
%ADD35RoundRect,0.225000X0.250000X-0.225000X0.250000X0.225000X-0.250000X0.225000X-0.250000X-0.225000X0*%
%ADD36R,0.750000X2.100000*%
%ADD37R,1.400000X1.200000*%
%ADD38RoundRect,0.218750X-0.218750X-0.381250X0.218750X-0.381250X0.218750X0.381250X-0.218750X0.381250X0*%
%ADD39RoundRect,0.225000X-0.225000X-0.250000X0.225000X-0.250000X0.225000X0.250000X-0.225000X0.250000X0*%
%ADD40R,0.800000X1.000000*%
%ADD41R,1.500000X0.700000*%
%ADD42RoundRect,0.250000X0.625000X-0.375000X0.625000X0.375000X-0.625000X0.375000X-0.625000X-0.375000X0*%
%ADD43R,1.900000X2.500000*%
G04 APERTURE END LIST*
D10*
%TO.C,D2*%
X109625000Y-98500000D03*
X106325000Y-98500000D03*
%TD*%
D11*
%TO.C,D3*%
X124475000Y-111150000D03*
X124475000Y-107850000D03*
%TD*%
D12*
%TO.C,U1*%
X91575000Y-94500000D03*
X91575000Y-95000000D03*
X91575000Y-95500000D03*
X91575000Y-96000000D03*
X91575000Y-96500000D03*
X91575000Y-97000000D03*
X91575000Y-97500000D03*
X91575000Y-98000000D03*
X91575000Y-98500000D03*
X91575000Y-99000000D03*
X91575000Y-99500000D03*
X91575000Y-100000000D03*
X91575000Y-100500000D03*
X91575000Y-101000000D03*
X91575000Y-101500000D03*
X91575000Y-102000000D03*
D13*
X93500000Y-103925000D03*
X94000000Y-103925000D03*
X94500000Y-103925000D03*
X95000000Y-103925000D03*
X95500000Y-103925000D03*
X96000000Y-103925000D03*
X96500000Y-103925000D03*
X97000000Y-103925000D03*
X97500000Y-103925000D03*
X98000000Y-103925000D03*
X98500000Y-103925000D03*
X99000000Y-103925000D03*
X99500000Y-103925000D03*
X100000000Y-103925000D03*
X100500000Y-103925000D03*
X101000000Y-103925000D03*
D12*
X102925000Y-102000000D03*
X102925000Y-101500000D03*
X102925000Y-101000000D03*
X102925000Y-100500000D03*
X102925000Y-100000000D03*
X102925000Y-99500000D03*
X102925000Y-99000000D03*
X102925000Y-98500000D03*
X102925000Y-98000000D03*
X102925000Y-97500000D03*
X102925000Y-97000000D03*
X102925000Y-96500000D03*
X102925000Y-96000000D03*
X102925000Y-95500000D03*
X102925000Y-95000000D03*
X102925000Y-94500000D03*
D13*
X101000000Y-92575000D03*
X100500000Y-92575000D03*
X100000000Y-92575000D03*
X99500000Y-92575000D03*
X99000000Y-92575000D03*
X98500000Y-92575000D03*
X98000000Y-92575000D03*
X97500000Y-92575000D03*
X97000000Y-92575000D03*
X96500000Y-92575000D03*
X96000000Y-92575000D03*
X95500000Y-92575000D03*
X95000000Y-92575000D03*
X94500000Y-92575000D03*
X94000000Y-92575000D03*
X93500000Y-92575000D03*
%TD*%
D14*
%TO.C,Q1*%
X125412500Y-116000000D03*
X123537500Y-116950000D03*
X123537500Y-115050000D03*
%TD*%
D15*
%TO.C,C1*%
X101250000Y-106475000D03*
X101250000Y-108025000D03*
%TD*%
D16*
%TO.C,R4*%
X98760000Y-88250000D03*
X97740000Y-88250000D03*
%TD*%
D17*
%TO.C,C14*%
X121000000Y-100000000D03*
X123950000Y-100000000D03*
%TD*%
%TO.C,C12*%
X116000000Y-107000000D03*
X118950000Y-107000000D03*
%TD*%
D18*
%TO.C,C11*%
X84500000Y-98000000D03*
X84500000Y-98960000D03*
%TD*%
D19*
%TO.C,C9*%
X89250000Y-99225000D03*
X89250000Y-98265000D03*
%TD*%
D20*
%TO.C,IC1*%
X110675000Y-110550000D03*
X110675000Y-111500000D03*
X110675000Y-112450000D03*
X113275000Y-112450000D03*
X113275000Y-111500000D03*
X113275000Y-110550000D03*
%TD*%
D21*
%TO.C,C5*%
X94730000Y-105750000D03*
X93770000Y-105750000D03*
%TD*%
D16*
%TO.C,R1*%
X82510000Y-90000000D03*
X81490000Y-90000000D03*
%TD*%
D22*
%TO.C,R6*%
X117300000Y-113500000D03*
X115650000Y-113500000D03*
%TD*%
D23*
%TO.C,R11*%
X124750000Y-81500000D03*
X126400000Y-81500000D03*
%TD*%
D18*
%TO.C,C10*%
X89250000Y-95520000D03*
X89250000Y-96480000D03*
%TD*%
D24*
%TO.C,D4*%
X122350000Y-81500000D03*
X120775000Y-81500000D03*
%TD*%
D25*
%TO.C,C7*%
X103270000Y-93250000D03*
X104230000Y-93250000D03*
%TD*%
D26*
%TO.C,R5*%
X94740000Y-88250000D03*
X95760000Y-88250000D03*
%TD*%
D25*
%TO.C,C16*%
X93270000Y-90750000D03*
X94230000Y-90750000D03*
%TD*%
D22*
%TO.C,R3*%
X85575000Y-104250000D03*
X83925000Y-104250000D03*
%TD*%
D27*
%TO.C,D1*%
X88250000Y-104250000D03*
X89825000Y-104250000D03*
%TD*%
D28*
%TO.C,U2*%
X123300000Y-92387500D03*
X124250000Y-92387500D03*
X125200000Y-92387500D03*
X125200000Y-90112500D03*
X124250000Y-90112500D03*
X123300000Y-90112500D03*
%TD*%
D29*
%TO.C,R10*%
X106975000Y-116675000D03*
X106975000Y-118325000D03*
%TD*%
D30*
%TO.C,C3*%
X90025000Y-91250000D03*
X88475000Y-91250000D03*
%TD*%
D17*
%TO.C,C15*%
X121000000Y-103500000D03*
X123950000Y-103500000D03*
%TD*%
D23*
%TO.C,R7*%
X115650000Y-117500000D03*
X117300000Y-117500000D03*
%TD*%
D31*
%TO.C,R2*%
X85750000Y-99010000D03*
X85750000Y-97990000D03*
%TD*%
D32*
%TO.C,J5*%
X132250000Y-93650000D03*
X132250000Y-92850000D03*
X132250000Y-92050000D03*
X132250000Y-91250000D03*
X132250000Y-90450000D03*
D33*
X132250000Y-96450000D03*
X137750000Y-96450000D03*
X132250000Y-87650000D03*
X137750000Y-87650000D03*
%TD*%
D21*
%TO.C,C8*%
X89480000Y-101745000D03*
X88520000Y-101745000D03*
%TD*%
D34*
%TO.C,L1*%
X88500000Y-100495000D03*
X89470000Y-100495000D03*
%TD*%
D35*
%TO.C,C2*%
X108225000Y-92275000D03*
X108225000Y-90725000D03*
%TD*%
D36*
%TO.C,J2*%
X114540000Y-83600000D03*
X114540000Y-80000000D03*
X113270000Y-83600000D03*
X113270000Y-80000000D03*
X112000000Y-83600000D03*
X112000000Y-80000000D03*
X110730000Y-83600000D03*
X110730000Y-80000000D03*
X109460000Y-83600000D03*
X109460000Y-80000000D03*
%TD*%
D21*
%TO.C,C4*%
X90730000Y-93250000D03*
X89770000Y-93250000D03*
%TD*%
D37*
%TO.C,Y1*%
X87100000Y-94650000D03*
X84900000Y-94650000D03*
X84900000Y-96350000D03*
X87100000Y-96350000D03*
%TD*%
D25*
%TO.C,C6*%
X102270000Y-104750000D03*
X103230000Y-104750000D03*
%TD*%
D38*
%TO.C,FB1*%
X116412500Y-111000000D03*
X118537500Y-111000000D03*
%TD*%
D39*
%TO.C,C13*%
X110200000Y-108500000D03*
X111750000Y-108500000D03*
%TD*%
D40*
%TO.C,SW1*%
X78380000Y-86325000D03*
X76170000Y-86325000D03*
X78380000Y-93625000D03*
X76170000Y-93625000D03*
D41*
X79030000Y-87725000D03*
X79030000Y-90725000D03*
X79030000Y-92225000D03*
%TD*%
D22*
%TO.C,R9*%
X107800000Y-112500000D03*
X106150000Y-112500000D03*
%TD*%
D42*
%TO.C,F1*%
X119975000Y-116900000D03*
X119975000Y-114100000D03*
%TD*%
D22*
%TO.C,R8*%
X112800000Y-115500000D03*
X111150000Y-115500000D03*
%TD*%
D43*
%TO.C,L2*%
X113425000Y-101500000D03*
X117525000Y-101500000D03*
%TD*%
M02*
