%TF.GenerationSoftware,KiCad,Pcbnew,8.0.1*%
%TF.CreationDate,2024-04-03T13:36:13+02:00*%
%TF.ProjectId,stm32f405_v8,73746d33-3266-4343-9035-5f76382e6b69,rev?*%
%TF.SameCoordinates,Original*%
%TF.FileFunction,Copper,L3,Inr*%
%TF.FilePolarity,Positive*%
%FSLAX46Y46*%
G04 Gerber Fmt 4.6, Leading zero omitted, Abs format (unit mm)*
G04 Created by KiCad (PCBNEW 8.0.1) date 2024-04-03 13:36:13*
%MOMM*%
%LPD*%
G01*
G04 APERTURE LIST*
G04 Aperture macros list*
%AMRoundRect*
0 Rectangle with rounded corners*
0 $1 Rounding radius*
0 $2 $3 $4 $5 $6 $7 $8 $9 X,Y pos of 4 corners*
0 Add a 4 corners polygon primitive as box body*
4,1,4,$2,$3,$4,$5,$6,$7,$8,$9,$2,$3,0*
0 Add four circle primitives for the rounded corners*
1,1,$1+$1,$2,$3*
1,1,$1+$1,$4,$5*
1,1,$1+$1,$6,$7*
1,1,$1+$1,$8,$9*
0 Add four rect primitives between the rounded corners*
20,1,$1+$1,$2,$3,$4,$5,0*
20,1,$1+$1,$4,$5,$6,$7,0*
20,1,$1+$1,$6,$7,$8,$9,0*
20,1,$1+$1,$8,$9,$2,$3,0*%
G04 Aperture macros list end*
%ADD10C,0.100000*%
%TA.AperFunction,NonConductor*%
%ADD11C,0.100000*%
%TD*%
%TA.AperFunction,ComponentPad*%
%ADD12RoundRect,0.250000X-0.620000X-0.845000X0.620000X-0.845000X0.620000X0.845000X-0.620000X0.845000X0*%
%TD*%
%TA.AperFunction,ComponentPad*%
%ADD13O,1.740000X2.190000*%
%TD*%
%TA.AperFunction,ComponentPad*%
%ADD14RoundRect,0.250000X0.620000X0.845000X-0.620000X0.845000X-0.620000X-0.845000X0.620000X-0.845000X0*%
%TD*%
%TA.AperFunction,ComponentPad*%
%ADD15C,0.900000*%
%TD*%
%TA.AperFunction,ComponentPad*%
%ADD16C,8.600000*%
%TD*%
%TA.AperFunction,ComponentPad*%
%ADD17R,2.400000X2.400000*%
%TD*%
%TA.AperFunction,ComponentPad*%
%ADD18C,2.400000*%
%TD*%
%TA.AperFunction,ViaPad*%
%ADD19C,0.600000*%
%TD*%
%TA.AperFunction,ViaPad*%
%ADD20C,0.800000*%
%TD*%
G04 APERTURE END LIST*
D10*
D11*
X118303884Y-119872419D02*
X118303884Y-118872419D01*
X118780074Y-119205752D02*
X118780074Y-119872419D01*
X118780074Y-119300990D02*
X118827693Y-119253371D01*
X118827693Y-119253371D02*
X118922931Y-119205752D01*
X118922931Y-119205752D02*
X119065788Y-119205752D01*
X119065788Y-119205752D02*
X119161026Y-119253371D01*
X119161026Y-119253371D02*
X119208645Y-119348609D01*
X119208645Y-119348609D02*
X119208645Y-119872419D01*
X119637217Y-118967657D02*
X119684836Y-118920038D01*
X119684836Y-118920038D02*
X119780074Y-118872419D01*
X119780074Y-118872419D02*
X120018169Y-118872419D01*
X120018169Y-118872419D02*
X120113407Y-118920038D01*
X120113407Y-118920038D02*
X120161026Y-118967657D01*
X120161026Y-118967657D02*
X120208645Y-119062895D01*
X120208645Y-119062895D02*
X120208645Y-119158133D01*
X120208645Y-119158133D02*
X120161026Y-119300990D01*
X120161026Y-119300990D02*
X119589598Y-119872419D01*
X119589598Y-119872419D02*
X120208645Y-119872419D01*
X120637217Y-119777180D02*
X120684836Y-119824800D01*
X120684836Y-119824800D02*
X120637217Y-119872419D01*
X120637217Y-119872419D02*
X120589598Y-119824800D01*
X120589598Y-119824800D02*
X120637217Y-119777180D01*
X120637217Y-119777180D02*
X120637217Y-119872419D01*
X121684835Y-119777180D02*
X121637216Y-119824800D01*
X121637216Y-119824800D02*
X121494359Y-119872419D01*
X121494359Y-119872419D02*
X121399121Y-119872419D01*
X121399121Y-119872419D02*
X121256264Y-119824800D01*
X121256264Y-119824800D02*
X121161026Y-119729561D01*
X121161026Y-119729561D02*
X121113407Y-119634323D01*
X121113407Y-119634323D02*
X121065788Y-119443847D01*
X121065788Y-119443847D02*
X121065788Y-119300990D01*
X121065788Y-119300990D02*
X121113407Y-119110514D01*
X121113407Y-119110514D02*
X121161026Y-119015276D01*
X121161026Y-119015276D02*
X121256264Y-118920038D01*
X121256264Y-118920038D02*
X121399121Y-118872419D01*
X121399121Y-118872419D02*
X121494359Y-118872419D01*
X121494359Y-118872419D02*
X121637216Y-118920038D01*
X121637216Y-118920038D02*
X121684835Y-118967657D01*
X122541978Y-119205752D02*
X122541978Y-119872419D01*
X122113407Y-119205752D02*
X122113407Y-119729561D01*
X122113407Y-119729561D02*
X122161026Y-119824800D01*
X122161026Y-119824800D02*
X122256264Y-119872419D01*
X122256264Y-119872419D02*
X122399121Y-119872419D01*
X122399121Y-119872419D02*
X122494359Y-119824800D01*
X122494359Y-119824800D02*
X122541978Y-119777180D01*
D12*
%TO.N,+3.3V*%
%TO.C,J4*%
X93620000Y-117600000D03*
D13*
%TO.N,UART3_TX*%
X96160000Y-117600000D03*
%TO.N,UART3_RX*%
X98700000Y-117600000D03*
%TO.N,GND*%
X101240000Y-117600000D03*
%TD*%
D14*
%TO.N,+3.3V*%
%TO.C,J3*%
X101310000Y-78480000D03*
D13*
%TO.N,I2C_SCL*%
X98770000Y-78480000D03*
%TO.N,I2C_SDA*%
X96230000Y-78480000D03*
%TO.N,GND*%
X93690000Y-78480000D03*
%TD*%
D15*
%TO.N,GND*%
%TO.C,H2*%
X131775000Y-116000000D03*
X132719581Y-113719581D03*
X132719581Y-118280419D03*
X135000000Y-112775000D03*
D16*
X135000000Y-116000000D03*
D15*
X135000000Y-119225000D03*
X137280419Y-113719581D03*
X137280419Y-118280419D03*
X138225000Y-116000000D03*
%TD*%
D17*
%TO.N,+12V*%
%TO.C,J1*%
X134725000Y-106500000D03*
D18*
%TO.N,GND*%
X134725000Y-103000000D03*
%TD*%
D15*
%TO.N,GND*%
%TO.C,H1*%
X131775000Y-80000000D03*
X132719581Y-77719581D03*
X132719581Y-82280419D03*
X135000000Y-76775000D03*
D16*
X135000000Y-80000000D03*
D15*
X135000000Y-83225000D03*
X137280419Y-77719581D03*
X137280419Y-82280419D03*
X138225000Y-80000000D03*
%TD*%
%TO.N,GND*%
%TO.C,H4*%
X76775000Y-80000000D03*
X77719581Y-77719581D03*
X77719581Y-82280419D03*
X80000000Y-76775000D03*
D16*
X80000000Y-80000000D03*
D15*
X80000000Y-83225000D03*
X82280419Y-77719581D03*
X82280419Y-82280419D03*
X83225000Y-80000000D03*
%TD*%
%TO.N,GND*%
%TO.C,H3*%
X76775000Y-116000000D03*
X77719581Y-113719581D03*
X77719581Y-118280419D03*
X80000000Y-112775000D03*
D16*
X80000000Y-116000000D03*
D15*
X80000000Y-119225000D03*
X82280419Y-113719581D03*
X82280419Y-118280419D03*
X83225000Y-116000000D03*
%TD*%
D19*
%TO.N,GND*%
X97500000Y-102000000D03*
X96900000Y-83200000D03*
X100225000Y-90675000D03*
X96375000Y-106125000D03*
X109950000Y-89050000D03*
X98525000Y-106800000D03*
X99000000Y-83100000D03*
D20*
%TO.N,+3.3V*%
X121000000Y-106000000D03*
X107975000Y-110750000D03*
X100250000Y-88075000D03*
X112525000Y-113925000D03*
X114000000Y-115500000D03*
X103050000Y-91350000D03*
X87500000Y-98625000D03*
X115823800Y-83500000D03*
X90002400Y-94497600D03*
X93350000Y-88275000D03*
X118500000Y-82500000D03*
D19*
%TO.N,BOOT0*%
X95000000Y-90000000D03*
X85000000Y-90000000D03*
D20*
%TO.N,+5V*%
X129250000Y-94350000D03*
X129250000Y-90950000D03*
D19*
%TO.N,NRST*%
X104750000Y-82500000D03*
X100250000Y-95500000D03*
%TD*%
%TA.AperFunction,Conductor*%
%TO.N,GND*%
G36*
X135001649Y-75254572D02*
G01*
X135410316Y-75272414D01*
X135416836Y-75272984D01*
X135820819Y-75326170D01*
X135827245Y-75327304D01*
X136225026Y-75415489D01*
X136231346Y-75417183D01*
X136619926Y-75539703D01*
X136626091Y-75541946D01*
X136746819Y-75591952D01*
X137002520Y-75697867D01*
X137008444Y-75700630D01*
X137369841Y-75888762D01*
X137375506Y-75892032D01*
X137475596Y-75955796D01*
X137719138Y-76110950D01*
X137724512Y-76114713D01*
X138047747Y-76362740D01*
X138052772Y-76366957D01*
X138222635Y-76522608D01*
X138353160Y-76642212D01*
X138357793Y-76646845D01*
X138633042Y-76947227D01*
X138637259Y-76952252D01*
X138885286Y-77275487D01*
X138889049Y-77280861D01*
X139052659Y-77537677D01*
X139094437Y-77603255D01*
X139107962Y-77624484D01*
X139111242Y-77630166D01*
X139299364Y-77991545D01*
X139302137Y-77997490D01*
X139458053Y-78373908D01*
X139460296Y-78380073D01*
X139582816Y-78768653D01*
X139584514Y-78774990D01*
X139672692Y-79172737D01*
X139673832Y-79179197D01*
X139727014Y-79583155D01*
X139727585Y-79589691D01*
X139745428Y-79998350D01*
X139745500Y-80001630D01*
X139745500Y-115998369D01*
X139745428Y-116001649D01*
X139727585Y-116410308D01*
X139727014Y-116416844D01*
X139673832Y-116820802D01*
X139672692Y-116827262D01*
X139584514Y-117225009D01*
X139582816Y-117231346D01*
X139460296Y-117619926D01*
X139458053Y-117626091D01*
X139302137Y-118002509D01*
X139299364Y-118008454D01*
X139111242Y-118369833D01*
X139107962Y-118375515D01*
X138889049Y-118719138D01*
X138885286Y-118724512D01*
X138637259Y-119047747D01*
X138633042Y-119052772D01*
X138357793Y-119353154D01*
X138353154Y-119357793D01*
X138052772Y-119633042D01*
X138047747Y-119637259D01*
X137724512Y-119885286D01*
X137719138Y-119889049D01*
X137375515Y-120107962D01*
X137369833Y-120111242D01*
X137008454Y-120299364D01*
X137002509Y-120302137D01*
X136626091Y-120458053D01*
X136619926Y-120460296D01*
X136231346Y-120582816D01*
X136225009Y-120584514D01*
X135827262Y-120672692D01*
X135820802Y-120673832D01*
X135416844Y-120727014D01*
X135410308Y-120727585D01*
X135001649Y-120745428D01*
X134998369Y-120745500D01*
X80001631Y-120745500D01*
X79998351Y-120745428D01*
X79589691Y-120727585D01*
X79583155Y-120727014D01*
X79179197Y-120673832D01*
X79172737Y-120672692D01*
X78774990Y-120584514D01*
X78768653Y-120582816D01*
X78380073Y-120460296D01*
X78373908Y-120458053D01*
X77997490Y-120302137D01*
X77991545Y-120299364D01*
X77630166Y-120111242D01*
X77624484Y-120107962D01*
X77581377Y-120080500D01*
X77475507Y-120013053D01*
X77280861Y-119889049D01*
X77275487Y-119885286D01*
X76952252Y-119637259D01*
X76947227Y-119633042D01*
X76649209Y-119359959D01*
X76646839Y-119357787D01*
X76642212Y-119353160D01*
X76446924Y-119140041D01*
X76366957Y-119052772D01*
X76362740Y-119047747D01*
X76114713Y-118724512D01*
X76110950Y-118719138D01*
X76071051Y-118656509D01*
X75892032Y-118375506D01*
X75888762Y-118369841D01*
X75700630Y-118008444D01*
X75697867Y-118002520D01*
X75563585Y-117678333D01*
X75541946Y-117626091D01*
X75539703Y-117619926D01*
X75417183Y-117231346D01*
X75415489Y-117225026D01*
X75327304Y-116827245D01*
X75326170Y-116820819D01*
X75272984Y-116416836D01*
X75272414Y-116410308D01*
X75269894Y-116352600D01*
X75254572Y-116001649D01*
X75254536Y-116000000D01*
X75542551Y-116000000D01*
X75562734Y-116423697D01*
X75623103Y-116843578D01*
X75623103Y-116843580D01*
X75723109Y-117255811D01*
X75861847Y-117656668D01*
X76038051Y-118042502D01*
X76038063Y-118042525D01*
X76250154Y-118409877D01*
X76250155Y-118409878D01*
X76496205Y-118755408D01*
X76496214Y-118755420D01*
X76773989Y-119075989D01*
X76773997Y-119075997D01*
X76795620Y-119096614D01*
X76795622Y-119096614D01*
X78425838Y-117466397D01*
X78533601Y-117574160D01*
X76905948Y-119201812D01*
X77080997Y-119368719D01*
X77081000Y-119368722D01*
X77414419Y-119630925D01*
X77414434Y-119630936D01*
X77771276Y-119860264D01*
X78148294Y-120054631D01*
X78148316Y-120054641D01*
X78542109Y-120212292D01*
X78949114Y-120331800D01*
X79365637Y-120412078D01*
X79365640Y-120412079D01*
X79787895Y-120452399D01*
X79787899Y-120452400D01*
X80212101Y-120452400D01*
X80212104Y-120452399D01*
X80634359Y-120412079D01*
X80634362Y-120412078D01*
X81050885Y-120331800D01*
X81457890Y-120212292D01*
X81851685Y-120054640D01*
X81851694Y-120054636D01*
X82228724Y-119860264D01*
X82585565Y-119630936D01*
X82585580Y-119630925D01*
X82918999Y-119368722D01*
X82919001Y-119368720D01*
X83043512Y-119250000D01*
X85164925Y-119250000D01*
X85183173Y-119423622D01*
X85183173Y-119423623D01*
X85237118Y-119589651D01*
X85237121Y-119589658D01*
X85324409Y-119740845D01*
X85441227Y-119870583D01*
X85441232Y-119870587D01*
X85582458Y-119973194D01*
X85582461Y-119973195D01*
X85582462Y-119973196D01*
X85741948Y-120044204D01*
X85912711Y-120080500D01*
X85912713Y-120080500D01*
X86087287Y-120080500D01*
X86087289Y-120080500D01*
X86258052Y-120044204D01*
X86417538Y-119973196D01*
X86558774Y-119870582D01*
X86675590Y-119740845D01*
X86688393Y-119718669D01*
X86762878Y-119589658D01*
X86762881Y-119589651D01*
X86782774Y-119528427D01*
X86816827Y-119423622D01*
X86835075Y-119250000D01*
X86816827Y-119076378D01*
X86782774Y-118971573D01*
X86762881Y-118910348D01*
X86762878Y-118910341D01*
X86675590Y-118759154D01*
X86558772Y-118629416D01*
X86558767Y-118629412D01*
X86417541Y-118526805D01*
X86355703Y-118499273D01*
X92549500Y-118499273D01*
X92552353Y-118529692D01*
X92552354Y-118529699D01*
X92552355Y-118529701D01*
X92597205Y-118657879D01*
X92597207Y-118657882D01*
X92677850Y-118767150D01*
X92786586Y-118847400D01*
X92787117Y-118847792D01*
X92787120Y-118847794D01*
X92805888Y-118854361D01*
X92915301Y-118892646D01*
X92929347Y-118893963D01*
X92945727Y-118895500D01*
X92945734Y-118895500D01*
X94294272Y-118895500D01*
X94308312Y-118894182D01*
X94324699Y-118892646D01*
X94452882Y-118847793D01*
X94562150Y-118767150D01*
X94642793Y-118657882D01*
X94687646Y-118529699D01*
X94689073Y-118514482D01*
X94690500Y-118499273D01*
X94690500Y-117930435D01*
X95089500Y-117930435D01*
X95127846Y-118123219D01*
X95130638Y-118137253D01*
X95211335Y-118332072D01*
X95328488Y-118507404D01*
X95328490Y-118507406D01*
X95328492Y-118507409D01*
X95477590Y-118656507D01*
X95477593Y-118656509D01*
X95477596Y-118656512D01*
X95652928Y-118773665D01*
X95847747Y-118854362D01*
X95985625Y-118881787D01*
X96054564Y-118895500D01*
X96054565Y-118895500D01*
X96265436Y-118895500D01*
X96317139Y-118885215D01*
X96472253Y-118854362D01*
X96667072Y-118773665D01*
X96842404Y-118656512D01*
X96991512Y-118507404D01*
X97108665Y-118332072D01*
X97189362Y-118137253D01*
X97230500Y-117930435D01*
X97629500Y-117930435D01*
X97667846Y-118123219D01*
X97670638Y-118137253D01*
X97751335Y-118332072D01*
X97868488Y-118507404D01*
X97868490Y-118507406D01*
X97868492Y-118507409D01*
X98017590Y-118656507D01*
X98017593Y-118656509D01*
X98017596Y-118656512D01*
X98192928Y-118773665D01*
X98387747Y-118854362D01*
X98525625Y-118881787D01*
X98594564Y-118895500D01*
X98594565Y-118895500D01*
X98805436Y-118895500D01*
X98857139Y-118885215D01*
X99012253Y-118854362D01*
X99207072Y-118773665D01*
X99382404Y-118656512D01*
X99531512Y-118507404D01*
X99648665Y-118332072D01*
X99729362Y-118137253D01*
X99770500Y-117930435D01*
X99770500Y-117925698D01*
X100217600Y-117925698D01*
X100256889Y-118123219D01*
X100256890Y-118123222D01*
X100333960Y-118309286D01*
X100445852Y-118476744D01*
X100445854Y-118476747D01*
X100588252Y-118619145D01*
X100588255Y-118619147D01*
X100755713Y-118731039D01*
X100941777Y-118808109D01*
X100941780Y-118808110D01*
X101139301Y-118847400D01*
X101163800Y-118847400D01*
X101163800Y-118195000D01*
X101316200Y-118195000D01*
X101316200Y-118847400D01*
X101340699Y-118847400D01*
X101538219Y-118808110D01*
X101538222Y-118808109D01*
X101724286Y-118731039D01*
X101891744Y-118619147D01*
X101891747Y-118619145D01*
X101897700Y-118613192D01*
X118048384Y-118613192D01*
X118048384Y-120131646D01*
X122797478Y-120131646D01*
X122797478Y-119250000D01*
X128164925Y-119250000D01*
X128183173Y-119423622D01*
X128183173Y-119423623D01*
X128237118Y-119589651D01*
X128237121Y-119589658D01*
X128324409Y-119740845D01*
X128441227Y-119870583D01*
X128441232Y-119870587D01*
X128582458Y-119973194D01*
X128582461Y-119973195D01*
X128582462Y-119973196D01*
X128741948Y-120044204D01*
X128912711Y-120080500D01*
X128912713Y-120080500D01*
X129087287Y-120080500D01*
X129087289Y-120080500D01*
X129258052Y-120044204D01*
X129417538Y-119973196D01*
X129558774Y-119870582D01*
X129675590Y-119740845D01*
X129688393Y-119718669D01*
X129762878Y-119589658D01*
X129762881Y-119589651D01*
X129782774Y-119528427D01*
X129816827Y-119423622D01*
X129835075Y-119250000D01*
X129816827Y-119076378D01*
X129782774Y-118971573D01*
X129762881Y-118910348D01*
X129762878Y-118910341D01*
X129675590Y-118759154D01*
X129558772Y-118629416D01*
X129558767Y-118629412D01*
X129417541Y-118526805D01*
X129258053Y-118455796D01*
X129201131Y-118443697D01*
X129087289Y-118419500D01*
X128912711Y-118419500D01*
X128827329Y-118437648D01*
X128741946Y-118455796D01*
X128582459Y-118526805D01*
X128441232Y-118629412D01*
X128441227Y-118629416D01*
X128324409Y-118759154D01*
X128237121Y-118910341D01*
X128237118Y-118910348D01*
X128183173Y-119076376D01*
X128183173Y-119076377D01*
X128164925Y-119249999D01*
X128164925Y-119250000D01*
X122797478Y-119250000D01*
X122797478Y-118613192D01*
X118048384Y-118613192D01*
X101897700Y-118613192D01*
X102034145Y-118476747D01*
X102034147Y-118476744D01*
X102146039Y-118309286D01*
X102223109Y-118123222D01*
X102223110Y-118123219D01*
X102262400Y-117925698D01*
X102262400Y-117676200D01*
X101835000Y-117676200D01*
X101835000Y-117523800D01*
X102262400Y-117523800D01*
X102262400Y-117274301D01*
X102223110Y-117076780D01*
X102223109Y-117076777D01*
X102146039Y-116890713D01*
X102034147Y-116723255D01*
X102034145Y-116723252D01*
X101891747Y-116580854D01*
X101891744Y-116580852D01*
X101724286Y-116468960D01*
X101538222Y-116391890D01*
X101538219Y-116391889D01*
X101340699Y-116352600D01*
X101316200Y-116352600D01*
X101316200Y-117005000D01*
X101163800Y-117005000D01*
X101163800Y-116352600D01*
X101139301Y-116352600D01*
X100941780Y-116391889D01*
X100941777Y-116391890D01*
X100755713Y-116468960D01*
X100588255Y-116580852D01*
X100588252Y-116580854D01*
X100445854Y-116723252D01*
X100445852Y-116723255D01*
X100333960Y-116890713D01*
X100256890Y-117076777D01*
X100256889Y-117076780D01*
X100217600Y-117274301D01*
X100217600Y-117523800D01*
X100645000Y-117523800D01*
X100645000Y-117676200D01*
X100217600Y-117676200D01*
X100217600Y-117925698D01*
X99770500Y-117925698D01*
X99770500Y-117269565D01*
X99763557Y-117234662D01*
X99741522Y-117123882D01*
X99729362Y-117062747D01*
X99648665Y-116867928D01*
X99531512Y-116692596D01*
X99531509Y-116692593D01*
X99531507Y-116692590D01*
X99382409Y-116543492D01*
X99382406Y-116543490D01*
X99382404Y-116543488D01*
X99207072Y-116426335D01*
X99200703Y-116423697D01*
X99123912Y-116391889D01*
X99012253Y-116345638D01*
X99012251Y-116345637D01*
X99012250Y-116345637D01*
X98805436Y-116304500D01*
X98805435Y-116304500D01*
X98594565Y-116304500D01*
X98594564Y-116304500D01*
X98387749Y-116345637D01*
X98387747Y-116345638D01*
X98192929Y-116426334D01*
X98017593Y-116543490D01*
X98017590Y-116543492D01*
X97868492Y-116692590D01*
X97868490Y-116692593D01*
X97751334Y-116867929D01*
X97670638Y-117062747D01*
X97670637Y-117062749D01*
X97629500Y-117269564D01*
X97629500Y-117930435D01*
X97230500Y-117930435D01*
X97230500Y-117269565D01*
X97223557Y-117234662D01*
X97201522Y-117123882D01*
X97189362Y-117062747D01*
X97108665Y-116867928D01*
X96991512Y-116692596D01*
X96991509Y-116692593D01*
X96991507Y-116692590D01*
X96842409Y-116543492D01*
X96842406Y-116543490D01*
X96842404Y-116543488D01*
X96667072Y-116426335D01*
X96660703Y-116423697D01*
X96583912Y-116391889D01*
X96472253Y-116345638D01*
X96472251Y-116345637D01*
X96472250Y-116345637D01*
X96265436Y-116304500D01*
X96265435Y-116304500D01*
X96054565Y-116304500D01*
X96054564Y-116304500D01*
X95847749Y-116345637D01*
X95847747Y-116345638D01*
X95652929Y-116426334D01*
X95477593Y-116543490D01*
X95477590Y-116543492D01*
X95328492Y-116692590D01*
X95328490Y-116692593D01*
X95211334Y-116867929D01*
X95130638Y-117062747D01*
X95130637Y-117062749D01*
X95089500Y-117269564D01*
X95089500Y-117930435D01*
X94690500Y-117930435D01*
X94690500Y-116700726D01*
X94688869Y-116683343D01*
X94687646Y-116670301D01*
X94643273Y-116543490D01*
X94642794Y-116542120D01*
X94642792Y-116542117D01*
X94562150Y-116432850D01*
X94452882Y-116352207D01*
X94452879Y-116352205D01*
X94355470Y-116318121D01*
X94324699Y-116307354D01*
X94324694Y-116307353D01*
X94324692Y-116307353D01*
X94294273Y-116304500D01*
X94294266Y-116304500D01*
X92945734Y-116304500D01*
X92945727Y-116304500D01*
X92915307Y-116307353D01*
X92915303Y-116307353D01*
X92915301Y-116307354D01*
X92915298Y-116307354D01*
X92915298Y-116307355D01*
X92787120Y-116352205D01*
X92787117Y-116352207D01*
X92677850Y-116432850D01*
X92597207Y-116542117D01*
X92597205Y-116542120D01*
X92552355Y-116670298D01*
X92552353Y-116670307D01*
X92549500Y-116700726D01*
X92549500Y-118499273D01*
X86355703Y-118499273D01*
X86258053Y-118455796D01*
X86201131Y-118443697D01*
X86087289Y-118419500D01*
X85912711Y-118419500D01*
X85827329Y-118437648D01*
X85741946Y-118455796D01*
X85582459Y-118526805D01*
X85441232Y-118629412D01*
X85441227Y-118629416D01*
X85324409Y-118759154D01*
X85237121Y-118910341D01*
X85237118Y-118910348D01*
X85183173Y-119076376D01*
X85183173Y-119076377D01*
X85164925Y-119249999D01*
X85164925Y-119250000D01*
X83043512Y-119250000D01*
X83094050Y-119201812D01*
X81466398Y-117574160D01*
X81574160Y-117466398D01*
X83204376Y-119096614D01*
X83204377Y-119096614D01*
X83226011Y-119075988D01*
X83503785Y-118755420D01*
X83503794Y-118755408D01*
X83749844Y-118409878D01*
X83749845Y-118409877D01*
X83961936Y-118042525D01*
X83961948Y-118042502D01*
X84138152Y-117656668D01*
X84276890Y-117255811D01*
X84376896Y-116843580D01*
X84376896Y-116843578D01*
X84437265Y-116423697D01*
X84457448Y-116000000D01*
X84437265Y-115576302D01*
X84426295Y-115500000D01*
X113394318Y-115500000D01*
X113414956Y-115656763D01*
X113475463Y-115802839D01*
X113475465Y-115802842D01*
X113571717Y-115928282D01*
X113649801Y-115988197D01*
X113697159Y-116024536D01*
X113843238Y-116085044D01*
X114000000Y-116105682D01*
X114156762Y-116085044D01*
X114302841Y-116024536D01*
X114334817Y-116000000D01*
X130542551Y-116000000D01*
X130562734Y-116423697D01*
X130623103Y-116843578D01*
X130623103Y-116843580D01*
X130723109Y-117255811D01*
X130861847Y-117656668D01*
X131038051Y-118042502D01*
X131038063Y-118042525D01*
X131250154Y-118409877D01*
X131250155Y-118409878D01*
X131496205Y-118755408D01*
X131496214Y-118755420D01*
X131773989Y-119075989D01*
X131773997Y-119075997D01*
X131795620Y-119096614D01*
X131795622Y-119096614D01*
X133425838Y-117466397D01*
X133533601Y-117574160D01*
X131905948Y-119201812D01*
X132080997Y-119368719D01*
X132081000Y-119368722D01*
X132414419Y-119630925D01*
X132414434Y-119630936D01*
X132771276Y-119860264D01*
X133148294Y-120054631D01*
X133148316Y-120054641D01*
X133542109Y-120212292D01*
X133949114Y-120331800D01*
X134365637Y-120412078D01*
X134365640Y-120412079D01*
X134787895Y-120452399D01*
X134787899Y-120452400D01*
X135212101Y-120452400D01*
X135212104Y-120452399D01*
X135634359Y-120412079D01*
X135634362Y-120412078D01*
X136050885Y-120331800D01*
X136457890Y-120212292D01*
X136851685Y-120054640D01*
X136851694Y-120054636D01*
X137228724Y-119860264D01*
X137585565Y-119630936D01*
X137585580Y-119630925D01*
X137918999Y-119368722D01*
X137919001Y-119368720D01*
X138094050Y-119201812D01*
X136466398Y-117574160D01*
X136574160Y-117466398D01*
X138204376Y-119096614D01*
X138204377Y-119096614D01*
X138226011Y-119075988D01*
X138503785Y-118755420D01*
X138503794Y-118755408D01*
X138749844Y-118409878D01*
X138749845Y-118409877D01*
X138961936Y-118042525D01*
X138961948Y-118042502D01*
X139138152Y-117656668D01*
X139276890Y-117255811D01*
X139376896Y-116843580D01*
X139376896Y-116843578D01*
X139437265Y-116423697D01*
X139457448Y-116000000D01*
X139437265Y-115576302D01*
X139376896Y-115156421D01*
X139376896Y-115156419D01*
X139276890Y-114744188D01*
X139138152Y-114343331D01*
X138961948Y-113957497D01*
X138961936Y-113957474D01*
X138749845Y-113590122D01*
X138749844Y-113590121D01*
X138503794Y-113244591D01*
X138503785Y-113244579D01*
X138226010Y-112924010D01*
X138226002Y-112924002D01*
X138204378Y-112903384D01*
X138204376Y-112903384D01*
X136574159Y-114533600D01*
X136466398Y-114425839D01*
X138094050Y-112798186D01*
X137919002Y-112631280D01*
X137918999Y-112631277D01*
X137585580Y-112369074D01*
X137585565Y-112369063D01*
X137228724Y-112139735D01*
X136851694Y-111945363D01*
X136851685Y-111945359D01*
X136457890Y-111787707D01*
X136050885Y-111668199D01*
X135634362Y-111587921D01*
X135634359Y-111587920D01*
X135212104Y-111547600D01*
X134787895Y-111547600D01*
X134365640Y-111587920D01*
X134365637Y-111587921D01*
X133949114Y-111668199D01*
X133542109Y-111787707D01*
X133148316Y-111945358D01*
X133148294Y-111945368D01*
X132771276Y-112139735D01*
X132414434Y-112369063D01*
X132414419Y-112369074D01*
X132081000Y-112631277D01*
X132080997Y-112631280D01*
X131905948Y-112798186D01*
X133533601Y-114425839D01*
X133425839Y-114533601D01*
X131795622Y-112903384D01*
X131795621Y-112903384D01*
X131773993Y-112924006D01*
X131496214Y-113244579D01*
X131496205Y-113244591D01*
X131250155Y-113590121D01*
X131250154Y-113590122D01*
X131038063Y-113957474D01*
X131038051Y-113957497D01*
X130861847Y-114343331D01*
X130723109Y-114744188D01*
X130623103Y-115156419D01*
X130623103Y-115156421D01*
X130562734Y-115576302D01*
X130542551Y-116000000D01*
X114334817Y-116000000D01*
X114428282Y-115928282D01*
X114524536Y-115802841D01*
X114585044Y-115656762D01*
X114605682Y-115500000D01*
X114585044Y-115343238D01*
X114524536Y-115197159D01*
X114488197Y-115149801D01*
X114428282Y-115071717D01*
X114302842Y-114975465D01*
X114302841Y-114975464D01*
X114302839Y-114975463D01*
X114156763Y-114914956D01*
X114000000Y-114894318D01*
X113843236Y-114914956D01*
X113697160Y-114975463D01*
X113697157Y-114975465D01*
X113571717Y-115071717D01*
X113475465Y-115197157D01*
X113475463Y-115197160D01*
X113414956Y-115343236D01*
X113394318Y-115500000D01*
X84426295Y-115500000D01*
X84376896Y-115156421D01*
X84376896Y-115156419D01*
X84276890Y-114744188D01*
X84138152Y-114343331D01*
X83961948Y-113957497D01*
X83961936Y-113957474D01*
X83943187Y-113925000D01*
X111919318Y-113925000D01*
X111939956Y-114081763D01*
X112000463Y-114227839D01*
X112000465Y-114227842D01*
X112096717Y-114353282D01*
X112174801Y-114413197D01*
X112222159Y-114449536D01*
X112368238Y-114510044D01*
X112525000Y-114530682D01*
X112681762Y-114510044D01*
X112827841Y-114449536D01*
X112953282Y-114353282D01*
X113049536Y-114227841D01*
X113110044Y-114081762D01*
X113130682Y-113925000D01*
X113110044Y-113768238D01*
X113049536Y-113622159D01*
X113013197Y-113574801D01*
X112953282Y-113496717D01*
X112827842Y-113400465D01*
X112827841Y-113400464D01*
X112827839Y-113400463D01*
X112681763Y-113339956D01*
X112525000Y-113319318D01*
X112368236Y-113339956D01*
X112222160Y-113400463D01*
X112222157Y-113400465D01*
X112096717Y-113496717D01*
X112000465Y-113622157D01*
X112000463Y-113622160D01*
X111939956Y-113768236D01*
X111919318Y-113925000D01*
X83943187Y-113925000D01*
X83749845Y-113590122D01*
X83749844Y-113590121D01*
X83503794Y-113244591D01*
X83503785Y-113244579D01*
X83226010Y-112924010D01*
X83226002Y-112924002D01*
X83204378Y-112903384D01*
X83204376Y-112903384D01*
X81574159Y-114533600D01*
X81466398Y-114425839D01*
X83094050Y-112798186D01*
X82919002Y-112631280D01*
X82918999Y-112631277D01*
X82585580Y-112369074D01*
X82585565Y-112369063D01*
X82228724Y-112139735D01*
X81851694Y-111945363D01*
X81851685Y-111945359D01*
X81457890Y-111787707D01*
X81050885Y-111668199D01*
X80634362Y-111587921D01*
X80634359Y-111587920D01*
X80212104Y-111547600D01*
X79787895Y-111547600D01*
X79365640Y-111587920D01*
X79365637Y-111587921D01*
X78949114Y-111668199D01*
X78542109Y-111787707D01*
X78148316Y-111945358D01*
X78148294Y-111945368D01*
X77771276Y-112139735D01*
X77414434Y-112369063D01*
X77414419Y-112369074D01*
X77081000Y-112631277D01*
X77080997Y-112631280D01*
X76905948Y-112798186D01*
X78533601Y-114425839D01*
X78425839Y-114533601D01*
X76795622Y-112903384D01*
X76795621Y-112903384D01*
X76773993Y-112924006D01*
X76496214Y-113244579D01*
X76496205Y-113244591D01*
X76250155Y-113590121D01*
X76250154Y-113590122D01*
X76038063Y-113957474D01*
X76038051Y-113957497D01*
X75861847Y-114343331D01*
X75723109Y-114744188D01*
X75623103Y-115156419D01*
X75623103Y-115156421D01*
X75562734Y-115576302D01*
X75542551Y-116000000D01*
X75254536Y-116000000D01*
X75254500Y-115998369D01*
X75254500Y-110750000D01*
X107369318Y-110750000D01*
X107389956Y-110906763D01*
X107450463Y-111052839D01*
X107450465Y-111052842D01*
X107546717Y-111178282D01*
X107624801Y-111238197D01*
X107672159Y-111274536D01*
X107818238Y-111335044D01*
X107975000Y-111355682D01*
X108131762Y-111335044D01*
X108277841Y-111274536D01*
X108403282Y-111178282D01*
X108499536Y-111052841D01*
X108560044Y-110906762D01*
X108580682Y-110750000D01*
X108560044Y-110593238D01*
X108499536Y-110447159D01*
X108463197Y-110399801D01*
X108403282Y-110321717D01*
X108277842Y-110225465D01*
X108277841Y-110225464D01*
X108277839Y-110225463D01*
X108131763Y-110164956D01*
X107975000Y-110144318D01*
X107818236Y-110164956D01*
X107672160Y-110225463D01*
X107672157Y-110225465D01*
X107546717Y-110321717D01*
X107450465Y-110447157D01*
X107450463Y-110447160D01*
X107389956Y-110593236D01*
X107369318Y-110750000D01*
X75254500Y-110750000D01*
X75254500Y-107719748D01*
X133324500Y-107719748D01*
X133336132Y-107778229D01*
X133336133Y-107778231D01*
X133380448Y-107844552D01*
X133446769Y-107888867D01*
X133476010Y-107894683D01*
X133505251Y-107900500D01*
X133505252Y-107900500D01*
X135944749Y-107900500D01*
X135964242Y-107896622D01*
X136003231Y-107888867D01*
X136069552Y-107844552D01*
X136113867Y-107778231D01*
X136125500Y-107719748D01*
X136125500Y-105280252D01*
X136113867Y-105221769D01*
X136069552Y-105155448D01*
X136003231Y-105111133D01*
X136003229Y-105111132D01*
X135944749Y-105099500D01*
X135944748Y-105099500D01*
X133505252Y-105099500D01*
X133505251Y-105099500D01*
X133446770Y-105111132D01*
X133446768Y-105111133D01*
X133380448Y-105155448D01*
X133336133Y-105221768D01*
X133336132Y-105221770D01*
X133324500Y-105280251D01*
X133324500Y-107719748D01*
X75254500Y-107719748D01*
X75254500Y-106000000D01*
X120394318Y-106000000D01*
X120414956Y-106156763D01*
X120475463Y-106302839D01*
X120475465Y-106302842D01*
X120571717Y-106428282D01*
X120649801Y-106488197D01*
X120697159Y-106524536D01*
X120843238Y-106585044D01*
X121000000Y-106605682D01*
X121156762Y-106585044D01*
X121302841Y-106524536D01*
X121428282Y-106428282D01*
X121524536Y-106302841D01*
X121585044Y-106156762D01*
X121605682Y-106000000D01*
X121585044Y-105843238D01*
X121524536Y-105697159D01*
X121488197Y-105649801D01*
X121428282Y-105571717D01*
X121302842Y-105475465D01*
X121302841Y-105475464D01*
X121302839Y-105475463D01*
X121156763Y-105414956D01*
X121000000Y-105394318D01*
X120843236Y-105414956D01*
X120697160Y-105475463D01*
X120697157Y-105475465D01*
X120571717Y-105571717D01*
X120475465Y-105697157D01*
X120475463Y-105697160D01*
X120414956Y-105843236D01*
X120394318Y-106000000D01*
X75254500Y-106000000D01*
X75254500Y-103000001D01*
X133367965Y-103000001D01*
X133386472Y-103223357D01*
X133441494Y-103440631D01*
X133441496Y-103440639D01*
X133531520Y-103645871D01*
X133531520Y-103645873D01*
X133654109Y-103833508D01*
X133716237Y-103900997D01*
X133716239Y-103900998D01*
X134246855Y-103370382D01*
X134354617Y-103478144D01*
X133821905Y-104010855D01*
X133821905Y-104010857D01*
X133982773Y-104136065D01*
X134179879Y-104242733D01*
X134179881Y-104242734D01*
X134391865Y-104315508D01*
X134391875Y-104315511D01*
X134612933Y-104352399D01*
X134612940Y-104352400D01*
X134837060Y-104352400D01*
X134837066Y-104352399D01*
X135058124Y-104315511D01*
X135058134Y-104315508D01*
X135270118Y-104242734D01*
X135270120Y-104242733D01*
X135467226Y-104136065D01*
X135628093Y-104010857D01*
X135628093Y-104010855D01*
X135095382Y-103478144D01*
X135203145Y-103370382D01*
X135733760Y-103900997D01*
X135733761Y-103900997D01*
X135795892Y-103833507D01*
X135918476Y-103645879D01*
X135918479Y-103645871D01*
X136008503Y-103440639D01*
X136008505Y-103440631D01*
X136063527Y-103223357D01*
X136082035Y-103000001D01*
X136082035Y-102999998D01*
X136063527Y-102776642D01*
X136008505Y-102559368D01*
X136008503Y-102559360D01*
X135918479Y-102354128D01*
X135918479Y-102354126D01*
X135795890Y-102166491D01*
X135733760Y-102099001D01*
X135203144Y-102629617D01*
X135095382Y-102521855D01*
X135628093Y-101989143D01*
X135628093Y-101989141D01*
X135467225Y-101863933D01*
X135270120Y-101757266D01*
X135270118Y-101757265D01*
X135058134Y-101684491D01*
X135058124Y-101684488D01*
X134837066Y-101647600D01*
X134612933Y-101647600D01*
X134391875Y-101684488D01*
X134391865Y-101684491D01*
X134179881Y-101757265D01*
X134179879Y-101757266D01*
X133982774Y-101863933D01*
X133821905Y-101989141D01*
X133821905Y-101989143D01*
X134354617Y-102521855D01*
X134246855Y-102629617D01*
X133716238Y-102099000D01*
X133716238Y-102099001D01*
X133654109Y-102166491D01*
X133531520Y-102354126D01*
X133531520Y-102354128D01*
X133441496Y-102559360D01*
X133441494Y-102559368D01*
X133386472Y-102776642D01*
X133367965Y-102999998D01*
X133367965Y-103000001D01*
X75254500Y-103000001D01*
X75254500Y-98625000D01*
X86894318Y-98625000D01*
X86914956Y-98781763D01*
X86975463Y-98927839D01*
X86975465Y-98927842D01*
X87071717Y-99053282D01*
X87149801Y-99113197D01*
X87197159Y-99149536D01*
X87343238Y-99210044D01*
X87500000Y-99230682D01*
X87656762Y-99210044D01*
X87802841Y-99149536D01*
X87928282Y-99053282D01*
X88024536Y-98927841D01*
X88085044Y-98781762D01*
X88105682Y-98625000D01*
X88085044Y-98468238D01*
X88024536Y-98322159D01*
X87988197Y-98274801D01*
X87928282Y-98196717D01*
X87802842Y-98100465D01*
X87802841Y-98100464D01*
X87802839Y-98100463D01*
X87656763Y-98039956D01*
X87500000Y-98019318D01*
X87343236Y-98039956D01*
X87197160Y-98100463D01*
X87197157Y-98100465D01*
X87071717Y-98196717D01*
X86975465Y-98322157D01*
X86975463Y-98322160D01*
X86914956Y-98468236D01*
X86894318Y-98625000D01*
X75254500Y-98625000D01*
X75254500Y-95500000D01*
X99744353Y-95500000D01*
X99764835Y-95642459D01*
X99824622Y-95773372D01*
X99824624Y-95773375D01*
X99918872Y-95882143D01*
X100039947Y-95959953D01*
X100178039Y-96000500D01*
X100178042Y-96000500D01*
X100321958Y-96000500D01*
X100321961Y-96000500D01*
X100460053Y-95959953D01*
X100581128Y-95882143D01*
X100675377Y-95773373D01*
X100735165Y-95642457D01*
X100755647Y-95500000D01*
X100735165Y-95357543D01*
X100675377Y-95226627D01*
X100675375Y-95226624D01*
X100581127Y-95117856D01*
X100581125Y-95117855D01*
X100460051Y-95040046D01*
X100460052Y-95040046D01*
X100321963Y-94999500D01*
X100321961Y-94999500D01*
X100178039Y-94999500D01*
X100178036Y-94999500D01*
X100039948Y-95040046D01*
X99918874Y-95117855D01*
X99918872Y-95117856D01*
X99824624Y-95226624D01*
X99824622Y-95226627D01*
X99764835Y-95357540D01*
X99744353Y-95500000D01*
X75254500Y-95500000D01*
X75254500Y-94497600D01*
X89396718Y-94497600D01*
X89417356Y-94654363D01*
X89477863Y-94800439D01*
X89477865Y-94800442D01*
X89574117Y-94925882D01*
X89612954Y-94955682D01*
X89699559Y-95022136D01*
X89845638Y-95082644D01*
X90002400Y-95103282D01*
X90159162Y-95082644D01*
X90305241Y-95022136D01*
X90430682Y-94925882D01*
X90526936Y-94800441D01*
X90587444Y-94654362D01*
X90608082Y-94497600D01*
X90588650Y-94350000D01*
X128644318Y-94350000D01*
X128664956Y-94506763D01*
X128725463Y-94652839D01*
X128725465Y-94652842D01*
X128821717Y-94778282D01*
X128899801Y-94838197D01*
X128947159Y-94874536D01*
X129093238Y-94935044D01*
X129250000Y-94955682D01*
X129406762Y-94935044D01*
X129552841Y-94874536D01*
X129678282Y-94778282D01*
X129774536Y-94652841D01*
X129835044Y-94506762D01*
X129855682Y-94350000D01*
X129851600Y-94318993D01*
X134149500Y-94318993D01*
X134176420Y-94454328D01*
X134229225Y-94581811D01*
X134305886Y-94696542D01*
X134305888Y-94696544D01*
X134305890Y-94696547D01*
X134403452Y-94794109D01*
X134403455Y-94794111D01*
X134403458Y-94794114D01*
X134518189Y-94870775D01*
X134645672Y-94923580D01*
X134727165Y-94939790D01*
X134781005Y-94950500D01*
X134781007Y-94950500D01*
X134918995Y-94950500D01*
X134963901Y-94941566D01*
X135054328Y-94923580D01*
X135181811Y-94870775D01*
X135296542Y-94794114D01*
X135394114Y-94696542D01*
X135470775Y-94581811D01*
X135523580Y-94454328D01*
X135550500Y-94318993D01*
X135550500Y-94181007D01*
X135523580Y-94045672D01*
X135470775Y-93918189D01*
X135394114Y-93803458D01*
X135394111Y-93803455D01*
X135394109Y-93803452D01*
X135296547Y-93705890D01*
X135296544Y-93705888D01*
X135296542Y-93705886D01*
X135181811Y-93629225D01*
X135181809Y-93629224D01*
X135054331Y-93576421D01*
X135054329Y-93576420D01*
X134918995Y-93549500D01*
X134918993Y-93549500D01*
X134781007Y-93549500D01*
X134781005Y-93549500D01*
X134645670Y-93576420D01*
X134645668Y-93576421D01*
X134518190Y-93629224D01*
X134403455Y-93705888D01*
X134403452Y-93705890D01*
X134305890Y-93803452D01*
X134305888Y-93803455D01*
X134229224Y-93918190D01*
X134176421Y-94045668D01*
X134176420Y-94045670D01*
X134171717Y-94069317D01*
X134149500Y-94181007D01*
X134149500Y-94318993D01*
X129851600Y-94318993D01*
X129835044Y-94193238D01*
X129774536Y-94047159D01*
X129717681Y-93973064D01*
X129678282Y-93921717D01*
X129552842Y-93825465D01*
X129552841Y-93825464D01*
X129552839Y-93825463D01*
X129406763Y-93764956D01*
X129250000Y-93744318D01*
X129093236Y-93764956D01*
X128947160Y-93825463D01*
X128947157Y-93825465D01*
X128821717Y-93921717D01*
X128725465Y-94047157D01*
X128725463Y-94047160D01*
X128664956Y-94193236D01*
X128644318Y-94350000D01*
X90588650Y-94350000D01*
X90587444Y-94340838D01*
X90526936Y-94194759D01*
X90490597Y-94147401D01*
X90430682Y-94069317D01*
X90305242Y-93973065D01*
X90305241Y-93973064D01*
X90305239Y-93973063D01*
X90159163Y-93912556D01*
X90002400Y-93891918D01*
X89845636Y-93912556D01*
X89699560Y-93973063D01*
X89699557Y-93973065D01*
X89574117Y-94069317D01*
X89477865Y-94194757D01*
X89477863Y-94194760D01*
X89417356Y-94340836D01*
X89396718Y-94497600D01*
X75254500Y-94497600D01*
X75254500Y-91543994D01*
X76569500Y-91543994D01*
X76591152Y-91652842D01*
X76596420Y-91679328D01*
X76649225Y-91806811D01*
X76725886Y-91921542D01*
X76725888Y-91921544D01*
X76725890Y-91921547D01*
X76823452Y-92019109D01*
X76823455Y-92019111D01*
X76823458Y-92019114D01*
X76938189Y-92095775D01*
X77065672Y-92148580D01*
X77147165Y-92164790D01*
X77201005Y-92175500D01*
X77201007Y-92175500D01*
X77338995Y-92175500D01*
X77383901Y-92166566D01*
X77474328Y-92148580D01*
X77601811Y-92095775D01*
X77716542Y-92019114D01*
X77814114Y-91921542D01*
X77890775Y-91806811D01*
X77943580Y-91679328D01*
X77970500Y-91543993D01*
X77970500Y-91406007D01*
X77959359Y-91350000D01*
X102444318Y-91350000D01*
X102464956Y-91506763D01*
X102525463Y-91652839D01*
X102525465Y-91652842D01*
X102621717Y-91778282D01*
X102699801Y-91838197D01*
X102747159Y-91874536D01*
X102893238Y-91935044D01*
X103050000Y-91955682D01*
X103206762Y-91935044D01*
X103352841Y-91874536D01*
X103478282Y-91778282D01*
X103574536Y-91652841D01*
X103635044Y-91506762D01*
X103655682Y-91350000D01*
X103635044Y-91193238D01*
X103574536Y-91047159D01*
X103538197Y-90999801D01*
X103499984Y-90950000D01*
X128644318Y-90950000D01*
X128664956Y-91106763D01*
X128725463Y-91252839D01*
X128725465Y-91252842D01*
X128821717Y-91378282D01*
X128899801Y-91438197D01*
X128947159Y-91474536D01*
X129093238Y-91535044D01*
X129250000Y-91555682D01*
X129406762Y-91535044D01*
X129552841Y-91474536D01*
X129678282Y-91378282D01*
X129774536Y-91252841D01*
X129835044Y-91106762D01*
X129855682Y-90950000D01*
X129835044Y-90793238D01*
X129774536Y-90647159D01*
X129738197Y-90599801D01*
X129678282Y-90521717D01*
X129552842Y-90425465D01*
X129552841Y-90425464D01*
X129477156Y-90394114D01*
X129406763Y-90364956D01*
X129250000Y-90344318D01*
X129093236Y-90364956D01*
X128947160Y-90425463D01*
X128947157Y-90425465D01*
X128821717Y-90521717D01*
X128725465Y-90647157D01*
X128725463Y-90647160D01*
X128664956Y-90793236D01*
X128644318Y-90950000D01*
X103499984Y-90950000D01*
X103478282Y-90921717D01*
X103352842Y-90825465D01*
X103352841Y-90825464D01*
X103352839Y-90825463D01*
X103206763Y-90764956D01*
X103050000Y-90744318D01*
X102893236Y-90764956D01*
X102747160Y-90825463D01*
X102747157Y-90825465D01*
X102621717Y-90921717D01*
X102525465Y-91047157D01*
X102525463Y-91047160D01*
X102464956Y-91193236D01*
X102444318Y-91350000D01*
X77959359Y-91350000D01*
X77943580Y-91270672D01*
X77890775Y-91143189D01*
X77814114Y-91028458D01*
X77814111Y-91028455D01*
X77814109Y-91028452D01*
X77716547Y-90930890D01*
X77716544Y-90930888D01*
X77716542Y-90930886D01*
X77601811Y-90854225D01*
X77532376Y-90825464D01*
X77474331Y-90801421D01*
X77474329Y-90801420D01*
X77338995Y-90774500D01*
X77338993Y-90774500D01*
X77201007Y-90774500D01*
X77201005Y-90774500D01*
X77065670Y-90801420D01*
X77065668Y-90801421D01*
X76938190Y-90854224D01*
X76823455Y-90930888D01*
X76823452Y-90930890D01*
X76725890Y-91028452D01*
X76725888Y-91028455D01*
X76649224Y-91143190D01*
X76596421Y-91270668D01*
X76596420Y-91270670D01*
X76569500Y-91406005D01*
X76569500Y-91543994D01*
X75254500Y-91543994D01*
X75254500Y-90000000D01*
X84494353Y-90000000D01*
X84514835Y-90142459D01*
X84574622Y-90273372D01*
X84574624Y-90273375D01*
X84653979Y-90364956D01*
X84668872Y-90382143D01*
X84789947Y-90459953D01*
X84928039Y-90500500D01*
X84928042Y-90500500D01*
X85071958Y-90500500D01*
X85071961Y-90500500D01*
X85210053Y-90459953D01*
X85331128Y-90382143D01*
X85425377Y-90273373D01*
X85485165Y-90142457D01*
X85505647Y-90000000D01*
X94494353Y-90000000D01*
X94514835Y-90142459D01*
X94574622Y-90273372D01*
X94574624Y-90273375D01*
X94653979Y-90364956D01*
X94668872Y-90382143D01*
X94789947Y-90459953D01*
X94928039Y-90500500D01*
X94928042Y-90500500D01*
X95071958Y-90500500D01*
X95071961Y-90500500D01*
X95210053Y-90459953D01*
X95331128Y-90382143D01*
X95425377Y-90273373D01*
X95485165Y-90142457D01*
X95505647Y-90000000D01*
X95494000Y-89918993D01*
X134149500Y-89918993D01*
X134176420Y-90054328D01*
X134229225Y-90181811D01*
X134305886Y-90296542D01*
X134305888Y-90296544D01*
X134305890Y-90296547D01*
X134403452Y-90394109D01*
X134403455Y-90394111D01*
X134403458Y-90394114D01*
X134518189Y-90470775D01*
X134645672Y-90523580D01*
X134727165Y-90539790D01*
X134781005Y-90550500D01*
X134781007Y-90550500D01*
X134918995Y-90550500D01*
X134963901Y-90541566D01*
X135054328Y-90523580D01*
X135181811Y-90470775D01*
X135296542Y-90394114D01*
X135394114Y-90296542D01*
X135470775Y-90181811D01*
X135523580Y-90054328D01*
X135550500Y-89918993D01*
X135550500Y-89781007D01*
X135523580Y-89645672D01*
X135470775Y-89518189D01*
X135394114Y-89403458D01*
X135394111Y-89403455D01*
X135394109Y-89403452D01*
X135296547Y-89305890D01*
X135296544Y-89305888D01*
X135296542Y-89305886D01*
X135181811Y-89229225D01*
X135181809Y-89229224D01*
X135054331Y-89176421D01*
X135054329Y-89176420D01*
X134918995Y-89149500D01*
X134918993Y-89149500D01*
X134781007Y-89149500D01*
X134781005Y-89149500D01*
X134645670Y-89176420D01*
X134645668Y-89176421D01*
X134518190Y-89229224D01*
X134403455Y-89305888D01*
X134403452Y-89305890D01*
X134305890Y-89403452D01*
X134305888Y-89403455D01*
X134229224Y-89518190D01*
X134176421Y-89645668D01*
X134176420Y-89645670D01*
X134160318Y-89726624D01*
X134149500Y-89781007D01*
X134149500Y-89918993D01*
X95494000Y-89918993D01*
X95485165Y-89857543D01*
X95425377Y-89726627D01*
X95425375Y-89726624D01*
X95331127Y-89617856D01*
X95331125Y-89617855D01*
X95210051Y-89540046D01*
X95210052Y-89540046D01*
X95071963Y-89499500D01*
X95071961Y-89499500D01*
X94928039Y-89499500D01*
X94928036Y-89499500D01*
X94789948Y-89540046D01*
X94668874Y-89617855D01*
X94668872Y-89617856D01*
X94574624Y-89726624D01*
X94574622Y-89726627D01*
X94514835Y-89857540D01*
X94494353Y-90000000D01*
X85505647Y-90000000D01*
X85485165Y-89857543D01*
X85425377Y-89726627D01*
X85425375Y-89726624D01*
X85331127Y-89617856D01*
X85331125Y-89617855D01*
X85210051Y-89540046D01*
X85210052Y-89540046D01*
X85071963Y-89499500D01*
X85071961Y-89499500D01*
X84928039Y-89499500D01*
X84928036Y-89499500D01*
X84789948Y-89540046D01*
X84668874Y-89617855D01*
X84668872Y-89617856D01*
X84574624Y-89726624D01*
X84574622Y-89726627D01*
X84514835Y-89857540D01*
X84494353Y-90000000D01*
X75254500Y-90000000D01*
X75254500Y-88543994D01*
X76569500Y-88543994D01*
X76596420Y-88679329D01*
X76596421Y-88679331D01*
X76649224Y-88806809D01*
X76649225Y-88806811D01*
X76725886Y-88921542D01*
X76725888Y-88921544D01*
X76725890Y-88921547D01*
X76823452Y-89019109D01*
X76823455Y-89019111D01*
X76823458Y-89019114D01*
X76938189Y-89095775D01*
X77065672Y-89148580D01*
X77147165Y-89164790D01*
X77201005Y-89175500D01*
X77201007Y-89175500D01*
X77338995Y-89175500D01*
X77383901Y-89166566D01*
X77474328Y-89148580D01*
X77601811Y-89095775D01*
X77716542Y-89019114D01*
X77814114Y-88921542D01*
X77890775Y-88806811D01*
X77943580Y-88679328D01*
X77970500Y-88543993D01*
X77970500Y-88406007D01*
X77964897Y-88377841D01*
X77959790Y-88352165D01*
X77944441Y-88275000D01*
X92744318Y-88275000D01*
X92764956Y-88431763D01*
X92825463Y-88577839D01*
X92825465Y-88577842D01*
X92921717Y-88703282D01*
X92999801Y-88763197D01*
X93047159Y-88799536D01*
X93193238Y-88860044D01*
X93350000Y-88880682D01*
X93506762Y-88860044D01*
X93652841Y-88799536D01*
X93778282Y-88703282D01*
X93874536Y-88577841D01*
X93935044Y-88431762D01*
X93955682Y-88275000D01*
X93935044Y-88118238D01*
X93917134Y-88075000D01*
X99644318Y-88075000D01*
X99664956Y-88231763D01*
X99725463Y-88377839D01*
X99725465Y-88377842D01*
X99821717Y-88503282D01*
X99874775Y-88543994D01*
X99947159Y-88599536D01*
X100093238Y-88660044D01*
X100250000Y-88680682D01*
X100406762Y-88660044D01*
X100552841Y-88599536D01*
X100678282Y-88503282D01*
X100774536Y-88377841D01*
X100835044Y-88231762D01*
X100855682Y-88075000D01*
X100835044Y-87918238D01*
X100774536Y-87772159D01*
X100695624Y-87669318D01*
X100678282Y-87646717D01*
X100552842Y-87550465D01*
X100552841Y-87550464D01*
X100552839Y-87550463D01*
X100406763Y-87489956D01*
X100250000Y-87469318D01*
X100093236Y-87489956D01*
X99947160Y-87550463D01*
X99947157Y-87550465D01*
X99821717Y-87646717D01*
X99725465Y-87772157D01*
X99725463Y-87772160D01*
X99664956Y-87918236D01*
X99644318Y-88075000D01*
X93917134Y-88075000D01*
X93874536Y-87972159D01*
X93833160Y-87918236D01*
X93778282Y-87846717D01*
X93652842Y-87750465D01*
X93652841Y-87750464D01*
X93652839Y-87750463D01*
X93506763Y-87689956D01*
X93350000Y-87669318D01*
X93193236Y-87689956D01*
X93047160Y-87750463D01*
X93047157Y-87750465D01*
X92921717Y-87846717D01*
X92825465Y-87972157D01*
X92825463Y-87972160D01*
X92764956Y-88118236D01*
X92744318Y-88275000D01*
X77944441Y-88275000D01*
X77943580Y-88270672D01*
X77890775Y-88143189D01*
X77814114Y-88028458D01*
X77814111Y-88028455D01*
X77814109Y-88028452D01*
X77716547Y-87930890D01*
X77716544Y-87930888D01*
X77716542Y-87930886D01*
X77601811Y-87854225D01*
X77601809Y-87854224D01*
X77474331Y-87801421D01*
X77474329Y-87801420D01*
X77338995Y-87774500D01*
X77338993Y-87774500D01*
X77201007Y-87774500D01*
X77201005Y-87774500D01*
X77065670Y-87801420D01*
X77065668Y-87801421D01*
X76938190Y-87854224D01*
X76823455Y-87930888D01*
X76823452Y-87930890D01*
X76725890Y-88028452D01*
X76725888Y-88028455D01*
X76649224Y-88143190D01*
X76596421Y-88270668D01*
X76596420Y-88270670D01*
X76569500Y-88406005D01*
X76569500Y-88543994D01*
X75254500Y-88543994D01*
X75254500Y-80001630D01*
X75254536Y-80000000D01*
X75542551Y-80000000D01*
X75562734Y-80423697D01*
X75623103Y-80843578D01*
X75623103Y-80843580D01*
X75723109Y-81255811D01*
X75861847Y-81656668D01*
X76038051Y-82042502D01*
X76038063Y-82042525D01*
X76250154Y-82409877D01*
X76250155Y-82409878D01*
X76496205Y-82755408D01*
X76496214Y-82755420D01*
X76773989Y-83075989D01*
X76773997Y-83075997D01*
X76795620Y-83096614D01*
X76795622Y-83096614D01*
X78425838Y-81466397D01*
X78533601Y-81574160D01*
X76905948Y-83201812D01*
X77080997Y-83368719D01*
X77081000Y-83368722D01*
X77414419Y-83630925D01*
X77414434Y-83630936D01*
X77771276Y-83860264D01*
X78148294Y-84054631D01*
X78148316Y-84054641D01*
X78542109Y-84212292D01*
X78949114Y-84331800D01*
X79365637Y-84412078D01*
X79365640Y-84412079D01*
X79787895Y-84452399D01*
X79787899Y-84452400D01*
X80212101Y-84452400D01*
X80212104Y-84452399D01*
X80634359Y-84412079D01*
X80634362Y-84412078D01*
X81050885Y-84331800D01*
X81457890Y-84212292D01*
X81851685Y-84054640D01*
X81851694Y-84054636D01*
X82228724Y-83860264D01*
X82585565Y-83630936D01*
X82585580Y-83630925D01*
X82752065Y-83500000D01*
X115218118Y-83500000D01*
X115238756Y-83656763D01*
X115299263Y-83802839D01*
X115299265Y-83802842D01*
X115395517Y-83928282D01*
X115473601Y-83988197D01*
X115520959Y-84024536D01*
X115667038Y-84085044D01*
X115823800Y-84105682D01*
X115980562Y-84085044D01*
X116126641Y-84024536D01*
X116252082Y-83928282D01*
X116348336Y-83802841D01*
X116408844Y-83656762D01*
X116429482Y-83500000D01*
X116408844Y-83343238D01*
X116348336Y-83197159D01*
X116311997Y-83149801D01*
X116252082Y-83071717D01*
X116126642Y-82975465D01*
X116126641Y-82975464D01*
X116126639Y-82975463D01*
X115980563Y-82914956D01*
X115823800Y-82894318D01*
X115667036Y-82914956D01*
X115520960Y-82975463D01*
X115520957Y-82975465D01*
X115395517Y-83071717D01*
X115299265Y-83197157D01*
X115299263Y-83197160D01*
X115238756Y-83343236D01*
X115218118Y-83500000D01*
X82752065Y-83500000D01*
X82918999Y-83368722D01*
X82919001Y-83368720D01*
X83094050Y-83201812D01*
X81466398Y-81574160D01*
X81574160Y-81466398D01*
X83204376Y-83096614D01*
X83204377Y-83096614D01*
X83226011Y-83075988D01*
X83503785Y-82755420D01*
X83503794Y-82755408D01*
X83685669Y-82500000D01*
X104244353Y-82500000D01*
X104264835Y-82642459D01*
X104324622Y-82773372D01*
X104324624Y-82773375D01*
X104418872Y-82882143D01*
X104539947Y-82959953D01*
X104678039Y-83000500D01*
X104678042Y-83000500D01*
X104821958Y-83000500D01*
X104821961Y-83000500D01*
X104960053Y-82959953D01*
X105081128Y-82882143D01*
X105175377Y-82773373D01*
X105235165Y-82642457D01*
X105255647Y-82500000D01*
X117894318Y-82500000D01*
X117914956Y-82656763D01*
X117975463Y-82802839D01*
X117975465Y-82802842D01*
X118071717Y-82928282D01*
X118133207Y-82975464D01*
X118197159Y-83024536D01*
X118343238Y-83085044D01*
X118500000Y-83105682D01*
X118656762Y-83085044D01*
X118802841Y-83024536D01*
X118928282Y-82928282D01*
X119024536Y-82802841D01*
X119085044Y-82656762D01*
X119105682Y-82500000D01*
X119085044Y-82343238D01*
X119024536Y-82197159D01*
X118963684Y-82117855D01*
X118928282Y-82071717D01*
X118802842Y-81975465D01*
X118802841Y-81975464D01*
X118802839Y-81975463D01*
X118656763Y-81914956D01*
X118500000Y-81894318D01*
X118343236Y-81914956D01*
X118197160Y-81975463D01*
X118197157Y-81975465D01*
X118071717Y-82071717D01*
X117975465Y-82197157D01*
X117975463Y-82197160D01*
X117914956Y-82343236D01*
X117894318Y-82500000D01*
X105255647Y-82500000D01*
X105235165Y-82357543D01*
X105175377Y-82226627D01*
X105175375Y-82226624D01*
X105081127Y-82117856D01*
X105081125Y-82117855D01*
X105009334Y-82071718D01*
X104960053Y-82040047D01*
X104960052Y-82040046D01*
X104821963Y-81999500D01*
X104821961Y-81999500D01*
X104678039Y-81999500D01*
X104678036Y-81999500D01*
X104539948Y-82040046D01*
X104418874Y-82117855D01*
X104418872Y-82117856D01*
X104324624Y-82226624D01*
X104324622Y-82226627D01*
X104264835Y-82357540D01*
X104244353Y-82500000D01*
X83685669Y-82500000D01*
X83749844Y-82409878D01*
X83749845Y-82409877D01*
X83961936Y-82042525D01*
X83961948Y-82042502D01*
X84138152Y-81656668D01*
X84276890Y-81255811D01*
X84376896Y-80843580D01*
X84376896Y-80843578D01*
X84437265Y-80423697D01*
X84457448Y-80000000D01*
X130542551Y-80000000D01*
X130562734Y-80423697D01*
X130623103Y-80843578D01*
X130623103Y-80843580D01*
X130723109Y-81255811D01*
X130861847Y-81656668D01*
X131038051Y-82042502D01*
X131038063Y-82042525D01*
X131250154Y-82409877D01*
X131250155Y-82409878D01*
X131496205Y-82755408D01*
X131496214Y-82755420D01*
X131773989Y-83075989D01*
X131773997Y-83075997D01*
X131795620Y-83096614D01*
X131795622Y-83096614D01*
X133425838Y-81466397D01*
X133533601Y-81574160D01*
X131905948Y-83201812D01*
X132080997Y-83368719D01*
X132081000Y-83368722D01*
X132414419Y-83630925D01*
X132414434Y-83630936D01*
X132771276Y-83860264D01*
X133148294Y-84054631D01*
X133148316Y-84054641D01*
X133542109Y-84212292D01*
X133949114Y-84331800D01*
X134365637Y-84412078D01*
X134365640Y-84412079D01*
X134787895Y-84452399D01*
X134787899Y-84452400D01*
X135212101Y-84452400D01*
X135212104Y-84452399D01*
X135634359Y-84412079D01*
X135634362Y-84412078D01*
X136050885Y-84331800D01*
X136457890Y-84212292D01*
X136851685Y-84054640D01*
X136851694Y-84054636D01*
X137228724Y-83860264D01*
X137585565Y-83630936D01*
X137585580Y-83630925D01*
X137918999Y-83368722D01*
X137919001Y-83368720D01*
X138094050Y-83201812D01*
X136466398Y-81574160D01*
X136574160Y-81466398D01*
X138204376Y-83096614D01*
X138204377Y-83096614D01*
X138226011Y-83075988D01*
X138503785Y-82755420D01*
X138503794Y-82755408D01*
X138749844Y-82409878D01*
X138749845Y-82409877D01*
X138961936Y-82042525D01*
X138961948Y-82042502D01*
X139138152Y-81656668D01*
X139276890Y-81255811D01*
X139376896Y-80843580D01*
X139376896Y-80843578D01*
X139437265Y-80423697D01*
X139457448Y-80000000D01*
X139437265Y-79576302D01*
X139376896Y-79156421D01*
X139376896Y-79156419D01*
X139276890Y-78744188D01*
X139138152Y-78343331D01*
X138961948Y-77957497D01*
X138961936Y-77957474D01*
X138749845Y-77590122D01*
X138749844Y-77590121D01*
X138503794Y-77244591D01*
X138503785Y-77244579D01*
X138226010Y-76924010D01*
X138226002Y-76924002D01*
X138204378Y-76903384D01*
X138204376Y-76903384D01*
X136574159Y-78533600D01*
X136466398Y-78425839D01*
X138094050Y-76798186D01*
X137919002Y-76631280D01*
X137918999Y-76631277D01*
X137585580Y-76369074D01*
X137585565Y-76369063D01*
X137228724Y-76139735D01*
X136851694Y-75945363D01*
X136851685Y-75945359D01*
X136457890Y-75787707D01*
X136050885Y-75668199D01*
X135634362Y-75587921D01*
X135634359Y-75587920D01*
X135212104Y-75547600D01*
X134787895Y-75547600D01*
X134365640Y-75587920D01*
X134365637Y-75587921D01*
X133949114Y-75668199D01*
X133542109Y-75787707D01*
X133148316Y-75945358D01*
X133148294Y-75945368D01*
X132771276Y-76139735D01*
X132414434Y-76369063D01*
X132414419Y-76369074D01*
X132081000Y-76631277D01*
X132080997Y-76631280D01*
X131905948Y-76798186D01*
X133533601Y-78425839D01*
X133425839Y-78533601D01*
X131795622Y-76903384D01*
X131795621Y-76903384D01*
X131773993Y-76924006D01*
X131496214Y-77244579D01*
X131496205Y-77244591D01*
X131250155Y-77590121D01*
X131250154Y-77590122D01*
X131038063Y-77957474D01*
X131038051Y-77957497D01*
X130861847Y-78343331D01*
X130723109Y-78744188D01*
X130623103Y-79156419D01*
X130623103Y-79156421D01*
X130562734Y-79576302D01*
X130542551Y-80000000D01*
X84457448Y-80000000D01*
X84437265Y-79576302D01*
X84376896Y-79156421D01*
X84376896Y-79156419D01*
X84291812Y-78805698D01*
X92667600Y-78805698D01*
X92706889Y-79003219D01*
X92706890Y-79003222D01*
X92783960Y-79189286D01*
X92895852Y-79356744D01*
X92895854Y-79356747D01*
X93038252Y-79499145D01*
X93038255Y-79499147D01*
X93205713Y-79611039D01*
X93391777Y-79688109D01*
X93391780Y-79688110D01*
X93589301Y-79727400D01*
X93613800Y-79727400D01*
X93613800Y-79075000D01*
X93766200Y-79075000D01*
X93766200Y-79727400D01*
X93790699Y-79727400D01*
X93988219Y-79688110D01*
X93988222Y-79688109D01*
X94174286Y-79611039D01*
X94341744Y-79499147D01*
X94341747Y-79499145D01*
X94484145Y-79356747D01*
X94484147Y-79356744D01*
X94596039Y-79189286D01*
X94673109Y-79003222D01*
X94673110Y-79003219D01*
X94711458Y-78810435D01*
X95159500Y-78810435D01*
X95197846Y-79003219D01*
X95200638Y-79017253D01*
X95281335Y-79212072D01*
X95398488Y-79387404D01*
X95398490Y-79387406D01*
X95398492Y-79387409D01*
X95547590Y-79536507D01*
X95547593Y-79536509D01*
X95547596Y-79536512D01*
X95722928Y-79653665D01*
X95917747Y-79734362D01*
X96055625Y-79761787D01*
X96124564Y-79775500D01*
X96124565Y-79775500D01*
X96335436Y-79775500D01*
X96387139Y-79765215D01*
X96542253Y-79734362D01*
X96737072Y-79653665D01*
X96912404Y-79536512D01*
X97061512Y-79387404D01*
X97178665Y-79212072D01*
X97259362Y-79017253D01*
X97300500Y-78810435D01*
X97699500Y-78810435D01*
X97737846Y-79003219D01*
X97740638Y-79017253D01*
X97821335Y-79212072D01*
X97938488Y-79387404D01*
X97938490Y-79387406D01*
X97938492Y-79387409D01*
X98087590Y-79536507D01*
X98087593Y-79536509D01*
X98087596Y-79536512D01*
X98262928Y-79653665D01*
X98457747Y-79734362D01*
X98595625Y-79761787D01*
X98664564Y-79775500D01*
X98664565Y-79775500D01*
X98875436Y-79775500D01*
X98927139Y-79765215D01*
X99082253Y-79734362D01*
X99277072Y-79653665D01*
X99452404Y-79536512D01*
X99601512Y-79387404D01*
X99606945Y-79379273D01*
X100239500Y-79379273D01*
X100242353Y-79409692D01*
X100242354Y-79409699D01*
X100242355Y-79409701D01*
X100287205Y-79537879D01*
X100287207Y-79537882D01*
X100367850Y-79647150D01*
X100476586Y-79727400D01*
X100477117Y-79727792D01*
X100477120Y-79727794D01*
X100495888Y-79734361D01*
X100605301Y-79772646D01*
X100619347Y-79773963D01*
X100635727Y-79775500D01*
X100635734Y-79775500D01*
X101984272Y-79775500D01*
X101998312Y-79774182D01*
X102014699Y-79772646D01*
X102142882Y-79727793D01*
X102252150Y-79647150D01*
X102332793Y-79537882D01*
X102377646Y-79409699D01*
X102379073Y-79394482D01*
X102380500Y-79379273D01*
X102380500Y-77580726D01*
X102378869Y-77563343D01*
X102377646Y-77550301D01*
X102333273Y-77423490D01*
X102332794Y-77422120D01*
X102332792Y-77422117D01*
X102252150Y-77312850D01*
X102142882Y-77232207D01*
X102142879Y-77232205D01*
X102045470Y-77198121D01*
X102014699Y-77187354D01*
X102014694Y-77187353D01*
X102014692Y-77187353D01*
X101984273Y-77184500D01*
X101984266Y-77184500D01*
X100635734Y-77184500D01*
X100635727Y-77184500D01*
X100605307Y-77187353D01*
X100605303Y-77187353D01*
X100605301Y-77187354D01*
X100605298Y-77187354D01*
X100605298Y-77187355D01*
X100477120Y-77232205D01*
X100477117Y-77232207D01*
X100367850Y-77312850D01*
X100287207Y-77422117D01*
X100287205Y-77422120D01*
X100242355Y-77550298D01*
X100242353Y-77550307D01*
X100239500Y-77580726D01*
X100239500Y-79379273D01*
X99606945Y-79379273D01*
X99718665Y-79212072D01*
X99799362Y-79017253D01*
X99840500Y-78810435D01*
X99840500Y-78149565D01*
X99833557Y-78114662D01*
X99802153Y-77956780D01*
X99799362Y-77942747D01*
X99718665Y-77747928D01*
X99601512Y-77572596D01*
X99601509Y-77572593D01*
X99601507Y-77572590D01*
X99452409Y-77423492D01*
X99452406Y-77423490D01*
X99452404Y-77423488D01*
X99277072Y-77306335D01*
X99082253Y-77225638D01*
X99082251Y-77225637D01*
X99082250Y-77225637D01*
X98875436Y-77184500D01*
X98875435Y-77184500D01*
X98664565Y-77184500D01*
X98664564Y-77184500D01*
X98457749Y-77225637D01*
X98457747Y-77225638D01*
X98262929Y-77306334D01*
X98087593Y-77423490D01*
X98087590Y-77423492D01*
X97938492Y-77572590D01*
X97938490Y-77572593D01*
X97821334Y-77747929D01*
X97740638Y-77942747D01*
X97740637Y-77942749D01*
X97699500Y-78149564D01*
X97699500Y-78810435D01*
X97300500Y-78810435D01*
X97300500Y-78149565D01*
X97293557Y-78114662D01*
X97262153Y-77956780D01*
X97259362Y-77942747D01*
X97178665Y-77747928D01*
X97061512Y-77572596D01*
X97061509Y-77572593D01*
X97061507Y-77572590D01*
X96912409Y-77423492D01*
X96912406Y-77423490D01*
X96912404Y-77423488D01*
X96737072Y-77306335D01*
X96542253Y-77225638D01*
X96542251Y-77225637D01*
X96542250Y-77225637D01*
X96335436Y-77184500D01*
X96335435Y-77184500D01*
X96124565Y-77184500D01*
X96124564Y-77184500D01*
X95917749Y-77225637D01*
X95917747Y-77225638D01*
X95722929Y-77306334D01*
X95547593Y-77423490D01*
X95547590Y-77423492D01*
X95398492Y-77572590D01*
X95398490Y-77572593D01*
X95281334Y-77747929D01*
X95200638Y-77942747D01*
X95200637Y-77942749D01*
X95159500Y-78149564D01*
X95159500Y-78810435D01*
X94711458Y-78810435D01*
X94712400Y-78805698D01*
X94712400Y-78556200D01*
X94285000Y-78556200D01*
X94285000Y-78403800D01*
X94712400Y-78403800D01*
X94712400Y-78154301D01*
X94673110Y-77956780D01*
X94673109Y-77956777D01*
X94596039Y-77770713D01*
X94484147Y-77603255D01*
X94484145Y-77603252D01*
X94341747Y-77460854D01*
X94341744Y-77460852D01*
X94174286Y-77348960D01*
X93988222Y-77271890D01*
X93988219Y-77271889D01*
X93790699Y-77232600D01*
X93766200Y-77232600D01*
X93766200Y-77885000D01*
X93613800Y-77885000D01*
X93613800Y-77232600D01*
X93589301Y-77232600D01*
X93391780Y-77271889D01*
X93391777Y-77271890D01*
X93205713Y-77348960D01*
X93038255Y-77460852D01*
X93038252Y-77460854D01*
X92895854Y-77603252D01*
X92895852Y-77603255D01*
X92783960Y-77770713D01*
X92706890Y-77956777D01*
X92706889Y-77956780D01*
X92667600Y-78154301D01*
X92667600Y-78403800D01*
X93095000Y-78403800D01*
X93095000Y-78556200D01*
X92667600Y-78556200D01*
X92667600Y-78805698D01*
X84291812Y-78805698D01*
X84276890Y-78744188D01*
X84138152Y-78343331D01*
X83961948Y-77957497D01*
X83961936Y-77957474D01*
X83749845Y-77590122D01*
X83749844Y-77590121D01*
X83503794Y-77244591D01*
X83503785Y-77244579D01*
X83226010Y-76924010D01*
X83226002Y-76924002D01*
X83204378Y-76903384D01*
X83204376Y-76903384D01*
X81574159Y-78533600D01*
X81466398Y-78425839D01*
X83094050Y-76798186D01*
X83043513Y-76750000D01*
X85164925Y-76750000D01*
X85183173Y-76923622D01*
X85183173Y-76923623D01*
X85237118Y-77089651D01*
X85237121Y-77089658D01*
X85324409Y-77240845D01*
X85441227Y-77370583D01*
X85441232Y-77370587D01*
X85582458Y-77473194D01*
X85582461Y-77473195D01*
X85582462Y-77473196D01*
X85741948Y-77544204D01*
X85912711Y-77580500D01*
X85912713Y-77580500D01*
X86087287Y-77580500D01*
X86087289Y-77580500D01*
X86258052Y-77544204D01*
X86417538Y-77473196D01*
X86434526Y-77460854D01*
X86558767Y-77370587D01*
X86558765Y-77370587D01*
X86558774Y-77370582D01*
X86675590Y-77240845D01*
X86684370Y-77225637D01*
X86762878Y-77089658D01*
X86762881Y-77089651D01*
X86782774Y-77028427D01*
X86816827Y-76923622D01*
X86835075Y-76750000D01*
X128164925Y-76750000D01*
X128183173Y-76923622D01*
X128183173Y-76923623D01*
X128237118Y-77089651D01*
X128237121Y-77089658D01*
X128324409Y-77240845D01*
X128441227Y-77370583D01*
X128441232Y-77370587D01*
X128582458Y-77473194D01*
X128582461Y-77473195D01*
X128582462Y-77473196D01*
X128741948Y-77544204D01*
X128912711Y-77580500D01*
X128912713Y-77580500D01*
X129087287Y-77580500D01*
X129087289Y-77580500D01*
X129258052Y-77544204D01*
X129417538Y-77473196D01*
X129434526Y-77460854D01*
X129558767Y-77370587D01*
X129558765Y-77370587D01*
X129558774Y-77370582D01*
X129675590Y-77240845D01*
X129684370Y-77225637D01*
X129762878Y-77089658D01*
X129762881Y-77089651D01*
X129782774Y-77028427D01*
X129816827Y-76923622D01*
X129835075Y-76750000D01*
X129816827Y-76576378D01*
X129782774Y-76471573D01*
X129762881Y-76410348D01*
X129762878Y-76410341D01*
X129675590Y-76259154D01*
X129558772Y-76129416D01*
X129558767Y-76129412D01*
X129417541Y-76026805D01*
X129258053Y-75955796D01*
X129201131Y-75943697D01*
X129087289Y-75919500D01*
X128912711Y-75919500D01*
X128827329Y-75937648D01*
X128741946Y-75955796D01*
X128582459Y-76026805D01*
X128441232Y-76129412D01*
X128441227Y-76129416D01*
X128324409Y-76259154D01*
X128237121Y-76410341D01*
X128237118Y-76410348D01*
X128183173Y-76576376D01*
X128183173Y-76576377D01*
X128164925Y-76749999D01*
X128164925Y-76750000D01*
X86835075Y-76750000D01*
X86816827Y-76576378D01*
X86782774Y-76471573D01*
X86762881Y-76410348D01*
X86762878Y-76410341D01*
X86675590Y-76259154D01*
X86558772Y-76129416D01*
X86558767Y-76129412D01*
X86417541Y-76026805D01*
X86258053Y-75955796D01*
X86201131Y-75943697D01*
X86087289Y-75919500D01*
X85912711Y-75919500D01*
X85827329Y-75937648D01*
X85741946Y-75955796D01*
X85582459Y-76026805D01*
X85441232Y-76129412D01*
X85441227Y-76129416D01*
X85324409Y-76259154D01*
X85237121Y-76410341D01*
X85237118Y-76410348D01*
X85183173Y-76576376D01*
X85183173Y-76576377D01*
X85164925Y-76749999D01*
X85164925Y-76750000D01*
X83043513Y-76750000D01*
X82919002Y-76631280D01*
X82918999Y-76631277D01*
X82585580Y-76369074D01*
X82585565Y-76369063D01*
X82228724Y-76139735D01*
X81851694Y-75945363D01*
X81851685Y-75945359D01*
X81457890Y-75787707D01*
X81050885Y-75668199D01*
X80634362Y-75587921D01*
X80634359Y-75587920D01*
X80212104Y-75547600D01*
X79787895Y-75547600D01*
X79365640Y-75587920D01*
X79365637Y-75587921D01*
X78949114Y-75668199D01*
X78542109Y-75787707D01*
X78148316Y-75945358D01*
X78148294Y-75945368D01*
X77771276Y-76139735D01*
X77414434Y-76369063D01*
X77414419Y-76369074D01*
X77081000Y-76631277D01*
X77080997Y-76631280D01*
X76905948Y-76798186D01*
X78533601Y-78425839D01*
X78425839Y-78533601D01*
X76795622Y-76903384D01*
X76795621Y-76903384D01*
X76773993Y-76924006D01*
X76496214Y-77244579D01*
X76496205Y-77244591D01*
X76250155Y-77590121D01*
X76250154Y-77590122D01*
X76038063Y-77957474D01*
X76038051Y-77957497D01*
X75861847Y-78343331D01*
X75723109Y-78744188D01*
X75623103Y-79156419D01*
X75623103Y-79156421D01*
X75562734Y-79576302D01*
X75542551Y-80000000D01*
X75254536Y-80000000D01*
X75254572Y-79998350D01*
X75259205Y-79892237D01*
X75272414Y-79589681D01*
X75272985Y-79583155D01*
X75273446Y-79579656D01*
X75326170Y-79179176D01*
X75327303Y-79172758D01*
X75415490Y-78774967D01*
X75417183Y-78768653D01*
X75539703Y-78380073D01*
X75541946Y-78373908D01*
X75554611Y-78343331D01*
X75697871Y-77997470D01*
X75700625Y-77991564D01*
X75888767Y-77630147D01*
X75892025Y-77624503D01*
X76110956Y-77280851D01*
X76114706Y-77275496D01*
X76362742Y-76952249D01*
X76366957Y-76947227D01*
X76369802Y-76944122D01*
X76642223Y-76646827D01*
X76646827Y-76642223D01*
X76947229Y-76366954D01*
X76952252Y-76362740D01*
X77275496Y-76114706D01*
X77280851Y-76110956D01*
X77624503Y-75892025D01*
X77630147Y-75888767D01*
X77991564Y-75700625D01*
X77997470Y-75697871D01*
X78373910Y-75541945D01*
X78380073Y-75539703D01*
X78768653Y-75417183D01*
X78774967Y-75415490D01*
X79172758Y-75327303D01*
X79179176Y-75326170D01*
X79583165Y-75272984D01*
X79589681Y-75272414D01*
X79998351Y-75254572D01*
X80001631Y-75254500D01*
X80044875Y-75254500D01*
X134955125Y-75254500D01*
X134998369Y-75254500D01*
X135001649Y-75254572D01*
G37*
%TD.AperFunction*%
%TD*%
M02*
